<svg width="567" height="105" viewBox="0 0 567 105" fill="none" xmlns="http://www.w3.org/2000/svg">
<rect width="567" height="105" fill="white"/>
<g clip-path="url(#clip0)">
<path d="M566.9 0H0V104.9H566.9V0Z" fill="white"/>
<path d="M320.3 75.1H315.8V73.4H326.7V75.1H322.2V88.4H320.3V75.1Z" fill="#1D1D1B"/>
<path d="M336.3 88.4V80C336.3 79.3 335.9 79 335.2 79C334.4 79 332.7 79.5 331.5 80.1V88.4H329.6V72.9L331.5 72.6V78.3C332.7 77.7 334.4 77.2 335.7 77.2C337.5 77.2 338.1 78.3 338.1 80V88.4H336.3V88.4Z" fill="#1D1D1B"/>
<path d="M346.399 87C347.499 87 348.699 86.8 349.899 86.5L350.099 88C349.099 88.4 347.599 88.6 346.199 88.6C342.999 88.6 341.899 87 341.899 84.6V81.3C341.899 79 342.899 77.2 346.199 77.2C349.399 77.2 350.299 79.1 350.299 81.3V83.6H343.799V84.5C343.799 86.3 344.199 87 346.399 87ZM343.799 82.1H348.499V81.2C348.499 79.7 347.999 78.8 346.199 78.8C344.399 78.8 343.799 79.7 343.799 81.2V82.1Z" fill="#1D1D1B"/>
<path d="M371.1 88.4H369.1L367.9 84.8H361.5L360.3 88.4H358.3L363.4 73.4H366L371.1 88.4ZM364.7 74.8L362 83.1H367.4L364.7 74.8Z" fill="#1D1D1B"/>
<path d="M379.3 78.9C378.3 79.4 377.1 80.2 376.2 80.8V88.4H374.3V77.4H375.9L376 79C376.8 78.4 377.9 77.7 379 77.2L379.3 78.9Z" fill="#1D1D1B"/>
<path d="M387.799 88.2C387.099 88.4 386.299 88.6 385.499 88.6C383.699 88.6 382.799 87.9 382.799 86.1V79H380.899V77.4H382.799V74.7L384.699 74.4V77.4H387.799L387.599 79H384.699V85.8C384.699 86.6 384.799 87 385.799 87C386.299 87 386.899 86.9 387.599 86.7L387.799 88.2Z" fill="#1D1D1B"/>
<path d="M400.5 88.6C397.3 88.6 396 86.8 396 84.5V81.3C396 79 397.3 77.2 400.5 77.2C403.7 77.2 405 79 405 81.3V84.5C405 86.8 403.7 88.6 400.5 88.6ZM400.5 78.8C398.8 78.8 397.9 79.6 397.9 81.2V84.5C397.9 86.1 398.8 86.9 400.5 86.9C402.2 86.9 403.1 86.1 403.1 84.5V81.2C403.1 79.7 402.3 78.8 400.5 78.8Z" fill="#1D1D1B"/>
<path d="M414.7 74.3C414.1 74.2 413.3 74.1 412.9 74.1C411.7 74.1 411.4 74.5 411.4 75.6V77.4H414.5L414.3 79H411.3V88.4H409.4V79H407.5V77.4H409.4V75.4C409.4 73.5 410.5 72.5 412.5 72.5C413.2 72.5 414 72.6 414.7 72.8V74.3Z" fill="#1D1D1B"/>
<path d="M428.3 73.4C432 73.4 433.1 75.3 433.1 77.7V84.1C433.1 86.5 432 88.4 428.3 88.4H423.1V73.4H428.3ZM425 86.7H428.2C430.5 86.7 431.1 85.8 431.1 84V77.9C431.1 76.1 430.4 75.2 428.2 75.2H425V86.7Z" fill="#1D1D1B"/>
<path d="M437.1 75.7V73H439V75.7H437.1ZM437.1 88.4V77.4H439V88.4H437.1Z" fill="#1D1D1B"/>
<path d="M451.099 88.4H449.499L449.399 87.6C448.399 88.3 447.199 88.6 445.799 88.6C443.799 88.6 442.899 87.4 442.899 85.4C442.899 83.1 443.999 82.3 446.299 82.3H449.199V80.6C449.199 79.2 448.599 78.8 446.799 78.8C445.699 78.8 444.399 79 443.499 79.2L443.299 77.7C444.299 77.4 445.699 77.2 446.899 77.2C449.999 77.2 451.099 78.4 451.099 80.8V88.4V88.4ZM449.199 84H446.399C445.199 84 444.799 84.4 444.799 85.5C444.799 86.6 444.999 87.1 446.399 87.1C447.299 87.1 448.399 86.7 449.199 86.2V84Z" fill="#1D1D1B"/>
<path d="M463.599 78.5L462.299 78.7C462.699 79.3 462.899 80 462.899 80.9V81.4C462.899 83.8 461.499 85.1 458.599 85.1C458.199 85.1 457.799 85.1 457.499 85C457.099 85.3 456.699 85.7 456.699 86.2C456.699 86.6 456.899 86.8 457.399 86.8C458.499 86.9 459.099 87 460.499 87.1C462.499 87.3 463.199 88.1 463.199 89.7C463.199 92.1 462.399 92.9 458.399 92.9C457.399 92.9 455.699 92.7 454.399 92.4L454.699 90.9C455.799 91.2 457.299 91.3 458.399 91.3C461.199 91.3 461.499 90.9 461.499 89.8C461.499 88.9 461.199 88.7 459.899 88.6C458.699 88.5 458.299 88.4 456.999 88.3C455.399 88.2 454.899 87.3 454.899 86.3C454.899 85.5 455.299 84.8 455.899 84.4C454.899 83.8 454.399 82.7 454.399 81.3V81C454.399 78.6 455.499 77.2 458.699 77.2C459.299 77.2 459.999 77.3 460.499 77.4H463.699V78.5H463.599ZM458.599 78.8C456.799 78.8 456.099 79.4 456.099 81V81.5C456.099 83.2 456.799 83.7 458.599 83.7C460.399 83.7 461.099 83 461.099 81.5V81C461.099 79.4 460.499 78.8 458.599 78.8Z" fill="#1D1D1B"/>
<path d="M473.5 88.4V80C473.5 79.3 473.1 79 472.4 79C471.6 79 469.9 79.5 468.7 80.1V88.4H466.8V77.4H468.3L468.5 78.3C469.7 77.7 471.6 77.1 472.9 77.1C474.7 77.1 475.3 78.2 475.3 79.9V88.3H473.5V88.4Z" fill="#1D1D1B"/>
<path d="M483.5 88.6C480.3 88.6 479 86.8 479 84.5V81.3C479 79 480.3 77.2 483.5 77.2C486.7 77.2 488 79 488 81.3V84.5C488 86.8 486.7 88.6 483.5 88.6ZM483.5 78.8C481.8 78.8 480.9 79.6 480.9 81.2V84.5C480.9 86.1 481.8 86.9 483.5 86.9C485.2 86.9 486.1 86.1 486.1 84.5V81.2C486.1 79.7 485.2 78.8 483.5 78.8Z" fill="#1D1D1B"/>
<path d="M494.8 88.6C493.7 88.6 492.2 88.4 491.3 88L491.5 86.5C492.4 86.8 493.7 87 494.6 87C496.3 87 496.6 86.7 496.6 85.5C496.6 84.3 496.5 84.2 494.3 83.7C491.6 83 491.3 82.5 491.3 80.2C491.3 78.2 492.2 77.3 495.1 77.3C496.2 77.3 497.3 77.4 498.2 77.7L498.1 79.3C497.2 79.1 496 79 495.1 79C493.5 79 493.3 79.4 493.3 80.4C493.3 81.6 493.3 81.8 495.2 82.3C498.3 83.1 498.6 83.5 498.6 85.7C498.5 87.6 497.9 88.6 494.8 88.6Z" fill="#1D1D1B"/>
<path d="M508 88.2C507.3 88.4 506.5 88.6 505.7 88.6C503.9 88.6 503 87.9 503 86.1V79H501.1V77.4H503V74.7L504.9 74.4V77.4H508L507.8 79H504.9V85.8C504.9 86.6 505 87 506 87C506.5 87 507.1 86.9 507.8 86.7L508 88.2Z" fill="#1D1D1B"/>
<path d="M511.3 75.7V73H513.2V75.7H511.3ZM511.3 88.4V77.4H513.2V88.4H511.3Z" fill="#1D1D1B"/>
<path d="M516.899 84.6V81.2C516.899 78.7 517.799 77.2 521.299 77.2C522.299 77.2 523.299 77.4 523.899 77.5L523.699 79.1C522.799 78.9 522.099 78.9 521.299 78.9C519.399 78.9 518.799 79.4 518.799 81.2V84.8C518.799 86.5 519.399 87.1 521.299 87.1C522.099 87.1 522.899 87 523.699 86.9L523.899 88.5C523.299 88.7 522.199 88.8 521.299 88.8C517.699 88.6 516.899 87.1 516.899 84.6Z" fill="#1D1D1B"/>
<path d="M530.5 88.6C529.4 88.6 527.9 88.4 527 88L527.2 86.5C528.1 86.8 529.4 87 530.3 87C532 87 532.3 86.7 532.3 85.5C532.3 84.3 532.2 84.2 530 83.7C527.3 83 527 82.5 527 80.2C527 78.2 527.9 77.3 530.8 77.3C531.9 77.3 533 77.4 533.9 77.7L533.8 79.3C532.9 79.1 531.7 79 530.8 79C529.2 79 529 79.4 529 80.4C529 81.6 529 81.8 530.9 82.3C534 83.1 534.3 83.5 534.3 85.7C534.3 87.6 533.6 88.6 530.5 88.6Z" fill="#1D1D1B"/>
<path d="M560.5 63.9H345.4V66.3H560.5V63.9Z" fill="#1D1D1B"/>
<path fill-rule="evenodd" clip-rule="evenodd" d="M509 52.9H515.3V38.6H522.6C524.8 38.6 526.3 39.8 526.4 42.2C526.3 44.8 526.3 47.7 526.4 49.5C526.4 50.7 526.7 51.8 527.2 52.9H533.9V51.6C533.2 51.1 532.7 50.7 532.7 48.6C532.7 46.8 532.6 42 532.4 40.5C532.1 37.2 530.1 36.3 529 35.5C531 34.1 532.4 32.9 533.1 29.8C533.9 26.7 533.3 24.1 532.8 22.5C531.9 18.6 528.9 16.9 525.8 16.7H508.9L509 52.9ZM515.3 22.8H523.7C526.5 22.8 527.5 24.3 527.5 26.9C527.9 30.5 525.2 32.3 523.8 32.3H515.3V22.8Z" fill="#D51130"/>
<path fill-rule="evenodd" clip-rule="evenodd" d="M479.2 16.6V52.9H501.9V46.7H485.4L485.5 37.3H500V31.1H485.5V22.8H501.2V16.6H479.2Z" fill="#D51130"/>
<path fill-rule="evenodd" clip-rule="evenodd" d="M424.5 16.6L424.4 52.9H445.2V46.7H430.7V16.6H424.5Z" fill="#D51130"/>
<path fill-rule="evenodd" clip-rule="evenodd" d="M451.9 16.6L451.8 52.9H472.6V46.7H458.1V16.6H451.9Z" fill="#D51130"/>
<path fill-rule="evenodd" clip-rule="evenodd" d="M416.5 16.6H410.2V52.9H416.5V16.6Z" fill="#D51130"/>
<path fill-rule="evenodd" clip-rule="evenodd" d="M378.4 53H384.6L384.7 36.5H396.7V52.9H402.9L403 16.6H396.7V30.3H384.7V16.6H378.4V53Z" fill="#D51130"/>
<path fill-rule="evenodd" clip-rule="evenodd" d="M366 40.6C365.8 42.2 365.7 45.9 361.4 47.3C360.5 47.6 359.6 47.7 358.8 47.7C357.9 47.7 357.1 47.5 356.4 47.1C354.8 46.3 353.5 44.7 352.5 42C351.6 39.8 351.4 37 351.5 34.4C351.6 31.8 352 29.4 352.5 28.1C353.5 25 355.7 22.6 358.6 22.3C364.6 21.8 366.1 26.9 366.2 28.9H372.2C372.2 27.1 371.9 22.4 367.6 18.8C364.6 16.3 361.6 16 359.4 16C351.5 16 347.9 21.3 346.2 28.1C345.7 30.1 345.5 32.6 345.5 35.1C345.5 37.5 345.7 39.8 346.1 41.5C347.7 49.2 352.4 54.4 359.1 54.1C362.9 53.9 366.3 52.3 368 50.6C370.3 48.5 372.1 44.3 372.1 40.6H366Z" fill="#D51130"/>
<path fill-rule="evenodd" clip-rule="evenodd" d="M339.2 27.7C339.5 26.5 339.1 23.1 337.5 20.7C334.6 16.2 328.9 16.1 327.2 16.1C319.8 16.1 316.3 20.4 315.8 26.2C315.3 32.1 318 34.9 321.3 36.3C325.2 37.9 331.2 37.9 333.2 40.4C334.7 42.2 334.4 45 333.1 46.5C332.3 47.4 330.4 48.1 328.3 48.2C326.2 48.3 323.9 47.8 322.6 46.1C321.6 44.8 321.3 43.3 321.3 42.4H315.2C315.4 45.8 316.8 49.4 319.5 51.8C321.7 53.7 325.4 54.4 327 54.3C330.4 54.2 333.9 53.8 336.5 51.8C340.3 48.9 341.9 40.2 338.4 35.9C336.5 33.6 333.4 32.7 329.2 31.9C324.9 31.1 321.7 30.8 321.7 27.1C321.7 23.4 324.2 22.2 327.2 22.2C331.5 22.3 333.5 25 333.4 27.9L339.2 27.7Z" fill="#D51130"/>
<path d="M0 0H97.9V104.9H0V0Z" fill="#D51130"/>
<path d="M44.7998 27.1C41.9998 25.7 39.2998 24.9 36.1998 24.9C33.4998 24.9 31.0998 24.2 28.6998 25.3C25.8998 26.5 22.6998 29.8 21.0998 32.4C17.3998 38.1 18.5998 40.6 18.5998 47.3C18.5998 52.1 19.1998 55.5 21.5998 59.6C23.0998 62.1 23.3998 63.8 25.7998 65.5C29.4998 68 30.7998 70.6 34.6998 72.7C38.4998 74.8 39.9998 77.4 43.2998 80.4C46.1998 82.9 50.2998 86.6 52.9998 89.4L57.0998 72.4C59.6998 66.3 65.9998 62 69.5998 56.6C73.8998 50.2 79.1998 46.1 79.1998 38.3C79.1998 35.4 79.0998 30.7 78.1998 28C76.2998 22.8 73.0998 20 67.1998 18.8C61.6998 17.6 55.3998 19.6 52.2998 20.6C49.4998 21.7 46.2998 24.4 44.7998 27.1Z" fill="#FFDD00"/>
<path d="M44.7002 27.8C44.6002 27.7 43.8002 27.1 43.4002 26.9C42.9002 26.7 41.6002 26.3 41.6002 26.3H41.5002L42.1002 25.7C42.1002 25.7 42.1002 25.7 42.2002 25.8C42.3002 25.9 42.6002 26.2 42.9002 26.2C42.9002 26.2 42.9002 26.2 43.0002 26.2C43.1002 26.2 43.2002 26.2 43.4002 26.1C43.5002 26.1 43.7002 26 43.8002 26C43.9002 26 43.9002 26 44.0002 26C44.1002 26.1 44.3002 26.1 44.4002 26.2C44.6002 26.2 44.7002 26.3 44.9002 26.4C45.2002 26.6 45.4002 26.9 45.6002 27.2C45.7002 27.3 45.8002 27.4 45.8002 27.5V27.6L44.7002 27.4V27.8ZM54.3002 86.9L53.2002 86.8C53.1002 86.5 52.1002 86 51.8002 85.9L51.2002 85.6C51.2002 85.4 51.1002 85.4 50.9002 85.3V84.7H50.0002V84.4H49.9002C49.8002 84.3 49.6002 84.2 49.4002 84.1C49.1002 83.8 47.9002 82.4 47.7002 82.1C47.7002 82.2 47.7002 82.2 47.7002 82.3H47.4002C47.4002 82 47.3002 81.8 47.1002 81.7V81.1C46.8002 81.1 46.7002 80.9 46.5002 80.8C46.3002 80.7 46.2002 80.5 45.9002 80.5C45.9002 80 45.5002 79.7 45.1002 79.7V79.1C44.9002 79.1 44.8002 79 44.6002 78.9C44.5002 78.8 44.4002 78.8 44.2002 78.8V78.2C43.5002 78.2 43.1002 77.7 42.7002 77.2C42.3002 76.7 42.0002 76.3 41.3002 76.1C41.3002 75.6 40.9002 75.4 40.5002 75.2C40.3002 75.1 40.0002 74.9 39.8002 74.7C39.6002 74.5 39.4002 74.3 39.2002 74.1C39.0002 73.9 38.8002 73.7 38.6002 73.5C38.5002 73.4 38.5002 73.3 38.4002 73.2C38.4002 73.1 38.3002 73 38.2002 72.9C38.1002 72.9 38.1002 72.9 38.0002 72.9C37.9002 72.9 37.9002 72.9 37.8002 72.9C37.7002 72.9 37.7002 72.9 37.7002 72.9C37.6002 72.8 37.6002 72.7 37.5002 72.6C37.5002 72.5 37.4002 72.4 37.3002 72.3C37.2002 72.3 37.2002 72.3 37.1002 72.3C37.0002 72.3 37.0002 72.3 36.9002 72.3C36.8002 72.3 36.8002 72.3 36.8002 72.3C36.7002 72.2 36.7002 72.1 36.6002 72C36.6002 71.9 36.5002 71.8 36.4002 71.7C36.3002 71.7 36.3002 71.7 36.2002 71.7C36.1002 71.7 36.1002 71.7 36.0002 71.7C35.9002 71.7 35.9002 71.7 35.9002 71.7C35.8002 71.6 35.6002 71.4 35.5002 71.3C35.3002 71.1 35.2002 70.9 34.9002 70.8C34.8002 70.7 34.5002 70.7 34.3002 70.7C33.9002 70.6 33.5002 70.6 33.4002 70.4C32.5002 69.4 32.1002 69 31.3002 68.3C31.1002 68.1 30.9002 67.9 30.6002 67.6C30.5002 67.5 30.5002 67.5 30.4002 67.5H30.3002C30.2002 67.5 30.1002 67.5 30.0002 67.4C29.6002 67.1 29.4002 66.8 29.1002 66.5C29.0002 66.4 28.9002 66.3 28.9002 66.2C28.8002 66.1 28.7002 65.9 28.6002 65.8C28.5002 65.6 28.4002 65.4 28.2002 65.3C28.1002 65.3 28.1002 65.3 28.0002 65.3C27.9002 65.3 27.9002 65.3 27.8002 65.3C27.7002 65.3 27.7002 65.3 27.7002 65.3C27.6002 65.2 27.5002 65.1 27.5002 65C27.4002 64.9 27.3002 64.7 27.2002 64.7V64.1C26.8002 64.1 26.2002 64 26.2002 64V63.9C26.2002 63.8 26.1002 63.5 26.0002 63.2C25.5002 63.2 25.4002 63.1 25.2002 62.9C25.0002 62.8 24.9002 62.6 24.5002 62.6C24.5002 62.5 24.2002 62.2 23.9002 61.9C23.6002 61.6 23.3002 61.3 23.1002 61.1C23.0002 60.9 22.9002 60.7 22.8002 60.4C22.6002 59.9 22.5002 59.5 22.0002 59.4L22.3002 58.3C22.1002 58.2 22.0002 58.1 22.0002 58L21.4002 57.7C21.4002 56.8 21.1002 56.3 20.7002 55.6C20.6002 55.5 20.6002 55.4 20.5002 55.3C20.0002 55.4 20.0002 55.2 20.0002 55C20.0002 54.8 20.0002 54.6 19.8002 54.6L19.5002 52.1C19.5002 52.1 19.5002 52.1 19.5002 52C19.5002 51.9 19.7002 51.7 19.8002 51.6V51.4C19.7002 51.4 19.7002 51.4 19.6002 51.3C19.5002 50.8 19.4002 50.2 19.3002 50.2H19.2002V50.1L19.5002 49.6C19.4002 49.6 19.4002 49.6 19.3002 49.5C19.3002 49.2 19.2002 49 19.0002 48.9L18.7002 44.6C18.8002 44.6 18.9002 44 19.0002 43.7C19.1002 43.2 19.2002 43.1 19.2002 43V41.6C19.3002 41.6 19.4002 41.6 19.4002 41.5V40.1C19.5002 40.1 19.6002 40.1 19.6002 40V38.6C19.7002 38.6 19.8002 38.6 19.8002 38.5V37.1C19.9002 37.1 20.0002 37 20.1002 36.9C20.2002 36.8 20.3002 36.8 20.4002 36.7V35.3H21.0002C21.0002 34.8 21.3002 34.4 21.5002 34.1C21.6002 33.9 21.8002 33.7 21.9002 33.5C22.0002 33.3 22.1002 33.1 22.2002 32.9C22.7002 31.9 23.1002 31.1 24.0002 30.3C24.2002 30.1 24.4002 30 24.6002 29.8C24.9002 29.6 25.1002 29.4 25.4002 29.1C25.5002 29 25.4002 28.9 25.4002 28.8C25.4002 28.7 25.4002 28.6 25.4002 28.5C25.5002 28.4 25.6002 28.3 25.7002 28.3C25.8002 28.2 26.0002 28.1 26.0002 28C26.2002 28 26.4002 27.9 26.5002 27.7C26.6002 27.6 26.7002 27.5 26.8002 27.4C26.9002 27.3 27.0002 27.3 27.2002 27.2C27.4002 27.1 27.7002 27 27.7002 26.8C28.0002 26.8 29.1002 26.6 29.1002 26.2C29.5002 26.2 29.9002 26.1 29.9002 25.6H31.0002C31.1002 25.5 31.3002 25.4 31.7002 25.2C31.8002 25.1 31.9002 25.1 32.0002 25C32.1002 24.9 32.3002 24.9 32.5002 24.9C32.7002 24.9 32.9002 24.9 32.9002 24.7H34.6002C34.7002 24.6 35.6002 24.4 35.8002 24.4H35.9002H37.3002C37.4002 24.4 37.5002 24.6 37.6002 24.7H38.8002C38.8002 24.8 38.8002 24.9 38.9002 24.9L40.7002 24.8V24.9C40.6002 25.1 40.2002 25.1 40.1002 25.1C40.0002 25.2 39.6002 25.4 39.5002 25.4C39.3002 25.6 39.1002 25.9 39.0002 26H40.1002V26.5C40.2002 26.5 40.4002 26.4 40.4002 26.3V26.2C40.7002 26.4 41.2002 26.7 41.2002 26.7L41.3002 26.8H41.2002C40.9002 26.8 40.7002 26.9 40.7002 27.1H40.1002C40.0002 26.9 39.9002 26.9 39.7002 26.8C39.5002 26.8 39.3002 26.7 39.2002 26.5H38.1002C38.1002 26.4 38.1002 26.3 38.0002 26.3H35.8002C35.8002 26.4 35.8002 26.4 35.7002 26.5H33.1002C33.1002 26.6 33.1002 26.6 33.0002 26.7H31.6002C31.6002 26.7 31.5002 26.8 31.4002 26.9C31.2002 27 31.0002 27.2 31.0002 27.3H29.9002C29.9002 27.4 29.9002 27.4 29.8002 27.5H28.9002V28.1C28.2002 28.1 27.8002 28.3 27.8002 28.7H27.2002L27.0002 29.3H26.9002C26.9002 29.2 26.9002 29.2 26.9002 29.1L26.1002 30.4V30.3C26.1002 30.3 26.1002 30.3 25.8002 30.3C25.7002 30.3 25.5002 30.3 25.4002 30.3C25.4002 30.9 24.6002 31.6 24.5002 31.8C24.5002 32.1 24.3002 32.8 24.2002 33C24.1002 33.1 24.0002 33.1 23.9002 33.2C23.8002 33.2 23.7002 33.3 23.6002 33.4C23.6002 33.5 23.6002 33.5 23.6002 33.6C23.6002 33.7 23.7002 33.8 23.6002 33.9C23.5002 34 23.3002 34.2 23.2002 34.3C23.0002 34.5 22.8002 34.6 22.7002 34.9C22.7002 35 22.7002 35 22.7002 35.1C22.7002 35.2 22.8002 35.3 22.7002 35.4C22.1002 36.2 21.7002 36.6 21.2002 37.5C21.1002 37.7 21.1002 37.8 21.0002 38C20.9002 38.3 20.9002 38.6 20.6002 38.7V39.8C20.5002 39.8 20.4002 40 20.3002 40.1C20.2002 40.2 20.2002 40.4 20.0002 40.4V41.8C19.9002 41.8 19.8002 41.8 19.8002 41.9V43.9C19.7002 43.9 19.6002 43.9 19.6002 44V46.8C19.7002 46.8 19.8002 46.9 19.8002 47C19.9002 47.1 20.0002 47.2 20.1002 47.2L19.9002 48.6C20.0002 48.7 20.1002 48.8 20.2002 49.1C20.3002 49.3 20.5002 49.7 20.6002 49.7L20.3002 51.5C20.4002 51.5 20.4002 51.5 20.5002 51.6V53.3C20.6002 53.3 20.6002 53.3 20.7002 53.4V53.5C20.7002 53.8 20.7002 54.2 21.0002 54.2V55.3C21.1002 55.3 21.1002 55.3 21.2002 55.4C21.2002 55.7 21.3002 55.9 21.5002 56C21.5002 56.6 21.8002 57 22.4002 57.1C22.4002 57.5 22.5002 58.4 23.3002 58.5C23.3002 58.7 23.4002 58.9 23.6002 59C23.7002 59.1 23.8002 59.2 23.9002 59.3C24.0002 59.4 24.0002 59.6 24.1002 59.7C24.3002 60.1 24.4002 60.4 24.8002 60.4C24.8002 60.9 25.1002 61.1 25.5002 61.4C25.7002 61.5 25.8002 61.7 26.0002 61.8C26.1002 61.9 26.2002 62.1 26.4002 62.2C26.7002 62.6 27.0002 62.9 27.5002 62.9V63.5C28.1002 63.5 28.5002 63.9 28.8002 64.3C29.2002 64.7 29.5002 65 30.1002 65V65.6C30.5002 65.6 30.7002 65.8 31.0002 65.9C31.3002 66 31.5002 66.2 31.9002 66.2V66.8C32.1002 66.8 32.2002 66.9 32.3002 67C32.4002 67 32.4002 67.1 32.5002 67.1C32.6002 67.1 32.6002 67.1 32.7002 67.1C32.8002 67.1 32.8002 67.1 32.9002 67.1C33.0002 67.1 33.0002 67.1 33.0002 67.1C33.2002 67.3 33.6002 67.5 33.8002 67.7C34.0002 67.8 34.1002 67.9 34.1002 68C34.2002 68.1 34.3002 68.1 34.3002 68.2C34.5002 68.4 34.6002 68.6 34.9002 68.6C34.9002 68.8 35.0002 69.1 35.1002 69.2H35.2002C35.3002 69.2 35.4002 69.2 35.5002 69.2C35.6002 69.2 35.7002 69.2 35.7002 69.2V70.1C36.3002 70.1 36.7002 70.5 37.0002 70.9C37.4002 71.3 37.7002 71.6 38.3002 71.6V72.2C38.6002 72.2 38.8002 72.4 39.0002 72.7C39.1002 72.9 39.3002 73 39.5002 73.1C39.6002 73.1 39.6002 73.1 39.7002 73.1C39.8002 73.1 39.8002 73.1 39.9002 73.1C40.0002 73.1 40.0002 73.1 40.0002 73.1C40.3002 73.4 40.5002 73.7 40.7002 73.9C40.9002 74.2 41.1002 74.5 41.5002 74.8C41.6002 74.9 41.7002 74.8 41.8002 74.8H41.9002C42.0002 74.8 42.0002 74.8 42.1002 74.9C42.3002 75.1 42.4002 75.2 42.6002 75.4C42.9002 75.7 43.1002 76 43.6002 76.1V76.7C44.2002 76.7 44.6002 77 44.8002 77.6H45.3002C45.3002 77.6 45.3002 77.6 45.3002 77.5V77.4C45.3002 77.3 45.2002 77.3 45.1002 77.3H45.0002V77C45.3002 77 45.5002 76.9 45.6002 76.7H47.0002V76.8C47.0002 77.1 47.0002 77.5 47.3002 77.5C47.3002 77.7 47.4002 77.9 47.6002 78C47.7002 78.1 47.8002 78.2 47.9002 78.3C48.0002 78.4 48.0002 78.5 48.1002 78.7C48.2002 78.9 48.3002 79.2 48.5002 79.2V79.8C48.9002 79.8 49.2002 80.1 49.4002 80.4C49.5002 80.5 49.5002 80.6 49.6002 80.6C49.9002 80.9 50.1002 81 50.3002 81.2C50.5002 81.4 50.8002 81.6 51.1002 81.9C51.6002 82.4 52.5002 83.5 52.6002 83.7H53.2002V82.9C53.1002 82.9 53.1002 82.8 53.0002 82.7C53.0002 82.6 52.9002 82.5 52.8002 82.5H52.7002L52.8002 82.4C52.8002 82.4 53.0002 82.2 53.1002 82.1C53.1002 81.9 53.2002 80.8 53.4002 80.3C53.5002 80.2 53.5002 80 53.5002 79.9C53.5002 79.7 53.5002 79.5 53.7002 79.4C53.7002 78.3 53.7002 78.3 53.7002 78.3H53.9002C53.9002 77.8 54.1002 77.5 54.5002 77.3L55.1002 76.2C55.1002 76 55.1002 75.6 55.4002 75.5V75.3C55.4002 75.2 55.6002 75.1 55.7002 75C55.7002 74.7 55.8002 74.5 55.9002 74.3C56.0002 74.2 56.0002 74 56.0002 73.8H56.6002C56.6002 73.5 56.8002 73.2 56.9002 73C57.0002 72.8 57.1002 72.6 57.2002 72.4H57.8002C57.8002 71.9 58.1002 71.6 58.4002 71.3C58.7002 71 58.9002 70.8 59.0002 70.4H59.6002V69.5C59.9002 69.5 60.1002 69.3 60.3002 69.1C60.4002 69 60.4002 69 60.5002 68.9C60.6002 68.8 60.7002 68.8 60.8002 68.7C60.9002 68.7 61.0002 68.6 61.1002 68.5C61.1002 68.4 61.1002 68.4 61.1002 68.3C61.1002 68.2 61.0002 68.1 61.1002 68C61.2002 67.9 61.3002 67.8 61.4002 67.8C61.5002 67.7 61.7002 67.6 61.7002 67.5H62.3002C62.3002 67.3 62.4002 67.2 62.5002 67C62.6002 66.9 62.6002 66.8 62.6002 66.6H63.2002C63.2002 66.5 63.2002 66.4 63.1002 66.3C63.1002 66.1 63.0002 65.9 63.2002 65.7C63.3002 65.6 63.4002 65.5 63.5002 65.5C63.6002 65.4 63.8002 65.3 63.8002 65.1C64.3002 65.1 64.7002 64.9 64.9002 64.5C65.0002 64.4 64.9002 64.3 64.9002 64.1C64.9002 63.9 64.8002 63.8 64.9002 63.7C65.1002 63.4 65.3002 63.3 65.5002 63.1C65.8002 62.8 66.1002 62.6 66.3002 62.2C66.4002 62.1 66.3002 62 66.3002 61.8C66.3002 61.6 66.2002 61.5 66.3002 61.4C66.4002 61.2 66.6002 61.2 66.7002 61.1C66.9002 61 67.0002 60.9 67.1002 60.7C67.1002 60.6 67.2002 60.5 67.2002 60.4C67.3002 60.2 67.4002 59.9 67.6002 59.8L67.3002 59.3C67.7002 59.2 67.9002 58.9 67.9002 58.5L68.8002 57.6C68.8002 57.1 69.0002 57 69.3002 56.9C69.5002 56.8 69.7002 56.7 69.7002 56.2L70.5002 55.3C70.5002 55.3 70.5002 55.3 70.6002 55.2C70.7002 55.2 70.8002 55.1 70.9002 54.9C70.9002 54.8 70.9002 54.7 70.9002 54.6C70.9002 54.5 70.8002 54.3 70.9002 54.2C71.0002 54.1 71.1002 54.1 71.3002 54.1C71.4002 54.1 71.5002 54.1 71.6002 54C71.7002 53.8 71.7002 53.6 71.6002 53.3C71.5002 53 71.5002 52.7 71.8002 52.5L72.2002 51.4C72.3002 51.4 72.4002 51.4 72.4002 51.3V51.1C72.3002 51.1 72.3002 51.1 72.2002 51V50.6C72.4002 50.5 72.4002 50.4 72.5002 50.2C72.5002 50 72.6002 49.8 72.8002 49.7V48C72.9002 48 73.0002 47.8 73.1002 47.7C73.2002 47.6 73.2002 47.4 73.4002 47.4V46.3C73.5002 46.3 73.6002 46.1 73.7002 46C73.8002 45.9 73.8002 45.7 74.0002 45.7V44.3C74.2002 44.2 74.2002 44.1 74.3002 43.9C74.3002 43.7 74.4002 43.5 74.6002 43.4V41.4C74.8002 41.3 74.9002 41.2 74.9002 41C74.9002 40.9 74.9002 40.6 74.6002 40.6V40C74.7002 40 74.8002 40 74.8002 39.9L74.9002 38.4L75.5002 36.7L74.8002 35.9C74.7002 35.8 74.6002 35.3 74.6002 34.4C74.5002 34.4 74.5002 34.2 74.4002 33.9C74.4002 33.7 74.3002 33.5 74.2002 33.4V33.3C74.2002 33 74.2002 32.6 73.9002 32.6V31.2C73.8002 31.2 73.8002 31.2 73.7002 31.1C73.7002 30.6 73.1002 28.9 72.9002 28.5C72.7002 28.1 71.9002 26.7 71.7002 26.5C71.6002 26.4 71.5002 26.4 71.4002 26.3C71.3002 26.3 71.2002 26.2 71.1002 26.1C71.0002 25.9 71.0002 25.7 70.9002 25.5C70.8002 25.2 70.8002 25 70.5002 24.9C70.5002 24.3 70.1002 24 69.7002 23.7C69.5002 23.5 69.3002 23.4 69.1002 23.2C68.9002 23 68.8002 22.8 68.6002 22.5C68.3002 22.1 68.1002 21.7 67.6002 21.7V21.1C67.2002 21.1 67.0002 20.9 66.8002 20.8C66.7002 20.7 66.5002 20.6 66.4002 20.5C66.3002 20.5 66.3002 20.5 66.2002 20.5C66.1002 20.5 66.0002 20.5 65.9002 20.5C65.8002 20.4 65.8002 20.3 65.7002 20.2C65.7002 20.1 65.6002 20 65.5002 19.9C65.3002 19.8 65.1002 19.8 64.9002 19.7C64.6002 19.7 64.2002 19.6 64.1002 19.3H63.0002C63.0002 19.2 63.0002 19.1 62.9002 19.1H58.9002C58.9002 19.2 58.9002 19.2 58.8002 19.3C58.0002 19.3 57.6002 19.7 57.1002 20.2C57.0002 20.3 56.8002 20.4 56.7002 20.4C56.5002 20.5 56.3002 20.5 56.3002 20.7H55.7002V21.3C55.2002 21.3 55.0002 21.4 54.6002 21.6H54.5002V21.5C54.5002 21.4 54.5002 21.4 54.5002 21.3L54.0002 22.2V22.1C54.0002 22 54.0002 21.9 53.9002 21.9C53.7002 21.9 53.4002 22 53.4002 22C53.4002 22.1 53.5002 22.1 53.6002 22.1H53.7002C53.7002 22.1 53.5002 22.4 53.4002 22.4C53.2002 22.7 53.0002 22.9 53.0002 22.9C52.9002 22.9 52.9002 23 52.9002 23.1V23.2C52.5002 23.2 51.8002 23.8 51.8002 23.8L51.7002 23.9V23.8C51.7002 23.7 51.6002 23.6 51.5002 23.6C51.5002 23.7 51.4002 23.7 51.3002 23.8C51.2002 23.8 51.2002 23.9 51.1002 24C51.0002 24.1 51.1002 24.2 51.1002 24.4C51.1002 24.6 51.2002 24.7 51.1002 24.8C51.0002 24.9 50.8002 25 50.7002 25.1C50.5002 25.2 50.3002 25.4 50.2002 25.6H49.6002V26.1C49.6002 26.1 49.6002 26.1 49.7002 26.1H49.8002C49.9002 26.1 49.9002 26.1 49.9002 26.1V26.2C49.9002 26.3 50.0002 26.5 49.9002 26.6C49.8002 26.8 49.7002 26.9 49.5002 26.9L48.7002 27.8C48.8002 27.8 48.8002 27.8 48.9002 27.9V28.2C48.6002 28.2 48.4002 28.4 48.2002 28.5C48.1002 28.6 47.9002 28.7 47.7002 28.8V29.9C47.2002 30.1 46.3002 31.2 46.3002 31.2V31.3L45.9002 30.2H46.0002C46.1002 30.2 46.2002 30.2 46.3002 30.1V29.9C46.2002 29.9 46.1002 29.8 46.0002 29.8V30H46.4002C46.4002 29.8 46.4002 29.5 46.7002 29.4V28C47.0002 27.9 47.0002 27.7 47.0002 27.4C47.0002 27.2 47.1002 27 47.2002 26.8C47.5002 26.4 47.7002 26.2 47.9002 25.8C48.0002 25.7 48.0002 25.5 48.1002 25.4C48.4002 24.9 48.8002 24.7 49.1002 24.5C49.6002 24.2 50.0002 23.9 50.1002 23.3C50.7002 23.3 51.2002 22.8 51.2002 22.2C51.5002 22.2 51.7002 22.1 51.8002 21.9C52.4002 21.9 52.8002 21.6 52.9002 21C53.1002 21 53.8002 20.8 54.0002 20.7C54.1002 20.6 54.1002 20.5 54.2002 20.4C54.2002 20.3 54.3002 20.2 54.4002 20.1C54.5002 20 54.6002 20 54.8002 19.9C55.0002 19.8 55.3002 19.7 55.3002 19.5H56.5002V18.9C56.7002 18.9 57.3002 18.6 57.3002 18.6H57.4002V18.7C57.4002 18.8 57.4002 18.9 57.5002 18.9H57.7002C57.7002 18.8 57.7002 18.8 57.8002 18.7C58.1002 18.7 58.3002 18.6 58.4002 18.4H59.5002C59.5002 18.3 59.5002 18.3 59.6002 18.2H60.0002V17.9H60.9002C60.9002 18 60.9002 18.1 61.0002 18.1H63.6002C63.6002 18.2 63.6002 18.3 63.7002 18.3H64.8002C64.9002 18.5 65.0002 18.5 65.2002 18.6C65.4002 18.6 65.6002 18.7 65.7002 18.9H66.8002C66.8002 19.1 67.0002 19.1 67.2002 19.1C67.4002 19.1 67.5002 19.1 67.7002 19.2C68.3002 19.7 68.8002 19.9 69.3002 20.2C69.6002 20.3 69.9002 20.5 70.3002 20.7C70.5002 20.8 70.6002 21 70.7002 21.2C70.8002 21.3 70.8002 21.4 71.0002 21.6C71.2002 21.8 71.4002 21.9 71.6002 22.1C71.8002 22.2 72.0002 22.4 72.2002 22.6C72.3002 22.7 72.4002 22.8 72.5002 23C72.7002 23.2 72.8002 23.4 73.1002 23.5C73.1002 23.7 73.2002 23.9 73.4002 24C73.5002 24.1 73.6002 24.2 73.7002 24.3C73.8002 24.4 73.8002 24.5 73.9002 24.7C74.0002 24.9 74.1002 25.2 74.3002 25.2C74.3002 25.7 74.5002 26 74.7002 26.4C74.8002 26.5 74.8002 26.6 74.9002 26.7C75.0002 26.9 75.0002 27.1 75.1002 27.3C75.2002 27.6 75.2002 27.8 75.5002 27.9V29C75.6002 29 75.6002 29 75.7002 29.1C75.7002 30 76.0002 30.5 76.4002 31.2C76.5002 31.3 76.5002 31.4 76.6002 31.5C76.7002 31.6 76.7002 31.8 76.7002 32C76.7002 32.2 76.7002 32.4 76.9002 32.4V33.8C77.0002 33.8 77.0002 33.8 77.1002 33.9L77.2002 35.2C77.3002 35.2 77.3002 35.4 77.3002 35.6C77.3002 35.7 77.3002 35.9 77.4002 36V36.3C77.4002 36.4 77.4002 36.7 77.4002 37C77.4002 37.5 77.4002 37.7 77.3002 37.7L77.1002 41C77.0002 41 76.9002 41 76.9002 41.1V42.2C76.8002 42.2 76.7002 42.2 76.7002 42.3V45.8C76.6002 45.8 76.5002 45.9 76.4002 46C76.3002 46.1 76.2002 46.1 76.1002 46.2V46.4C76.2002 46.4 76.2002 46.4 76.3002 46.5V46.8C76.2002 46.8 76.1002 46.8 76.1002 46.9V48C75.9002 48 75.9002 48.2 75.9002 48.4C75.9002 48.6 75.9002 48.7 75.8002 48.9C75.7002 49 75.6002 49 75.5002 49.1C75.4002 49.1 75.3002 49.2 75.2002 49.3C75.1002 49.4 75.2002 49.5 75.2002 49.7C75.2002 49.9 75.3002 50 75.2002 50.1C74.6002 50.8 74.4002 51.3 74.2002 51.8C74.1002 52.1 73.9002 52.5 73.7002 53.1C73.7002 53.2 73.6002 53.2 73.6002 53.3C73.5002 53.5 73.5002 53.5 73.3002 53.6C73.3002 53.6 73.2002 53.6 73.1002 53.7L72.8002 55.3L72.3002 55.8C72.2002 56 71.9002 57.1 71.6002 57.8H71.5002C71.4002 57.8 71.2002 57.9 71.0002 58C70.8002 58.1 70.5002 58.2 70.4002 58.2C70.4002 58.2 70.4002 58.2 70.3002 58.2H70.0002C70.0002 58.3 70.0002 58.4 70.1002 58.5C70.1002 58.7 70.2002 58.9 70.0002 59.1C69.9002 59.2 69.8002 59.3 69.7002 59.3C69.5002 59.4 69.4002 59.6 69.4002 59.8C69.4002 59.9 69.4002 60.2 69.7002 60.2H69.8002V60.3C69.7002 60.4 69.5002 60.7 69.5002 60.8L68.9002 61.4C68.8002 61.4 68.7002 61.6 68.6002 61.7C68.5002 61.8 68.5002 62 68.3002 62L68.6002 62.7L68.0002 63.7C67.2002 64 66.8002 64.3 66.8002 64.8H66.2002V65.4H65.6002C65.6002 66 65.4002 66.5 65.0002 66.9C64.9002 67 64.8002 67.1 64.6002 67.2C64.4002 67.4 64.2002 67.5 64.1002 67.8H63.6002C63.6002 67.8 63.6002 67.8 63.6002 67.9V68C63.6002 68.1 63.7002 68.1 63.8002 68.1H63.9002V68.4C63.7002 68.4 63.7002 68.5 63.6002 68.7H63.0002C63.0002 69.1 62.8002 69.3 62.6002 69.5C62.4002 69.7 62.2002 69.9 62.2002 70.2C62.1002 70.3 61.9002 70.5 61.9002 70.5V70.8L61.6002 71.1L61.0002 71.7V71.8C61.0002 72.1 61.0002 72.3 60.8002 72.5C60.8002 72.6 60.7002 72.6 60.6002 72.6C60.5002 72.6 60.3002 72.5 60.2002 72.4L60.1002 72.3C60.0002 72.3 59.9002 72.4 59.8002 72.6C59.8002 72.7 59.7002 72.8 59.6002 72.9C59.2002 73.2 59.0002 73.7 59.0002 73.8C59.0002 73.9 58.9002 74.5 58.9002 74.9C58.5002 74.9 58.2002 74.9 58.1002 75.2C58.0002 75.3 58.0002 75.5 57.9002 75.8C57.8002 76.2 57.6002 76.7 57.5002 76.9C57.2002 77.2 56.6002 77.8 56.5002 77.8C56.4002 77.8 55.5002 78.9 54.9002 79.6L55.8002 79.3L55.4002 80.1C55.4002 80.2 55.4002 80.3 55.5002 80.4C55.5002 80.5 55.6002 80.6 55.6002 80.8C55.4002 80.8 55.1002 80.9 55.0002 81C55.0002 81.1 55.1002 81.1 55.2002 81.1H55.3002L54.8002 82.4L54.0002 84C54.1002 84.2 54.4002 85 54.4002 85.4C54.4002 85.6 54.2002 85.7 54.1002 85.7L54.3002 86.9Z" fill="#E8308A"/>
<path d="M50.2996 34.4C50.1996 34.1 49.9996 34 49.6996 34V33.1C49.9996 33 49.9996 32.7 49.9996 32.4C49.9996 32.1 49.9996 31.9 50.1996 31.6C50.2996 31.5 50.3996 31 50.3996 30.7C50.3996 30.4 50.4996 30.2 50.4996 30.1C50.5996 29.9 50.7996 29.9 50.8996 29.8C51.0996 29.7 51.2996 29.6 51.2996 29.3H51.8996C52.1996 29.2 52.4996 29 52.4996 28.9C52.4996 28.8 52.2996 28.4 52.0996 28.2V28.1H52.1996C52.3996 28.1 52.4996 28 52.5996 27.9C52.6996 27.9 52.6996 27.8 52.7996 27.8C52.8996 27.8 53.0996 27.6 53.3996 27.5C53.7996 27.3 54.3996 27 54.4996 26.9C54.5996 26.8 54.7996 26.8 55.0996 26.7C55.6996 26.6 56.4996 26.4 56.5996 26H57.6996C57.6996 25.9 57.6996 25.9 57.7996 25.8C58.7996 25.9 59.3996 26 59.5996 26.1H60.6996C60.7996 26.3 60.6996 26.6 60.6996 26.7V26.8C60.6996 27.1 61.6996 27.7 62.0996 27.8V27.9H61.2996C61.1996 27.6 60.8996 27.5 60.5996 27.5C60.2996 27.4 59.8996 27.4 59.7996 27.1H58.1996C58.1996 27.2 58.1996 27.2 58.0996 27.3C57.7996 27.3 57.5996 27.4 57.5996 27.6H56.1996C56.1996 27.7 56.0996 27.7 56.0996 27.8C55.6996 27.8 54.7996 27.9 54.6996 28.6C54.1996 28.6 53.7996 28.8 53.5996 29.2C53.5996 29.3 53.4996 29.3 53.3996 29.3C52.8996 29.3 51.3996 29.5 51.0996 33.3L50.2996 34.4ZM56.2996 25.3C55.6996 25.3 55.0996 24.8 55.0996 24.7L54.9996 24.6H55.0996C55.1996 24.6 55.3996 24.4 55.6996 24.2C55.8996 24 56.1996 23.7 56.4996 23.5C57.4996 22.9 59.2996 22.5 59.2996 22.5H59.3996C59.3996 22.5 59.4996 22.5 59.6996 22.5C59.9996 22.5 60.4996 22.5 60.8996 22.5C61.3996 22.5 61.7996 22.5 62.0996 22.5C62.2996 22.5 62.3996 22.5 62.4996 22.5H63.5996C63.6996 22.7 63.7996 22.8 64.0996 22.8V23.1H63.5996C63.5996 23.1 63.5996 23.1 63.5996 23.2V23.3C63.5996 23.7 64.0996 23.7 64.3996 23.7V24.3H64.0996C63.9996 24 63.6996 23.9 63.3996 23.9C63.0996 23.8 62.6996 23.8 62.5996 23.5H60.8996C60.7996 23.5 60.4996 23.6 59.2996 23.6C59.1996 23.7 59.0996 23.7 58.6996 23.9C58.4996 24 58.0996 24.2 58.0996 24.2C57.4996 24.3 56.4996 24.6 56.2996 25.3ZM29.6996 59L28.0996 58C27.9996 57.7 27.7996 57.6 27.5996 57.5C27.3996 57.4 27.1996 57.4 26.9996 57.2C26.8996 57 26.6996 56.9 26.4996 56.7C26.3996 56.6 26.1996 56.5 26.1996 56.4C26.0996 56.2 25.9996 55.9 25.9996 55.5C25.9996 55.1 25.8996 54.6 25.6996 54.6L24.4996 54.5C24.4996 54.2 24.3996 53.4 24.3996 53.2C24.3996 53.1 24.2996 53 24.1996 53C24.0996 53 23.9996 53 23.9996 52.8C23.8996 52.5 23.8996 51 23.8996 50.9C23.8996 50.8 23.7996 50.5 23.4996 49.6C23.2996 48.9 22.9996 48.1 22.9996 48L22.5996 45.2C22.6996 45.1 23.2996 43.4 23.2996 43.1H23.3996L23.4996 45C23.5996 45 24.1996 44.8 24.4996 44.7H24.5996V44.8C24.5996 44.8 24.3996 46 23.9996 46.2C23.8996 46.7 23.7996 47.8 23.9996 48C23.9996 48 23.9996 48 24.0996 48H24.1996V48.1C24.1996 48.4 25.0996 49.9 25.1996 49.9C25.1996 50.1 25.1996 50.3 25.0996 50.5C24.9996 51.1 24.9996 51.7 25.2996 51.9C25.2996 52.5 25.3996 53 25.6996 53.3H25.7996H25.8996C25.9996 53.3 25.9996 53.3 25.9996 53.4C27.4996 55.7 28.2996 56.2 28.6996 56.3C28.7996 56.4 29.6996 58.6 29.6996 59Z" fill="white"/>
<path d="M97.9004 0H195.7V104.9H97.9004V0Z" fill="#EF7D00"/>
<path d="M146.9 19.1L147.3 25.9C147.3 29.8 146.9 40.3 145.4 40.3C143.5 40.3 142.4 36.6 142.1 34.5C142.1 32.6 143.1 31.3 143.1 29.5C143.1 26.6 141.3 23.9 138.5 23.9C137.3 23.9 133.9 23.8 131 24.5C119.3 27.4 117.2 38.3 112.8 49.6C108.8 59.9 105.6 70.7 108.9 77.7C111.3 82.8 119 82.4 121.8 82.9C125.3 83.5 134.1 81.9 136.5 81.4C142.2 80.1 144.6 73.9 144.6 70.2C144.6 65.2 142.4 58.4 142.4 53.4C142.4 50.7 147.4 47 148.8 44.3C151.4 45.8 152.3 47.5 154.9 49.2C154.7 49.7 154.5 50 154.3 50.6V60.3C153.4 65.3 152.2 67.9 151.2 72.7V76.6C151.6 79.1 156.9 82.2 163.7 78.8C163.7 78.8 173.8 86.7 181.7 83.8C185.6 82.4 184.1 75.6 184.8 71.2L185 61C183.9 53.2 175.4 32.8 173.3 30.7C169.8 27.3 164.9 26.3 160.1 26.3C157.1 26.3 155 27.6 155 30.8C155 34.3 157 36 157 39.4C157 40.7 156.5 42.1 155.3 42.1C151.6 42.1 151.9 36.9 151.9 33C151.9 29.6 152.8 20.8 152.8 20.8C151.2 20.6 148.4 18.9 146.9 19.1Z" fill="#E8308A"/>
<path d="M177.601 82.5H172.201V82.3C172.201 82.2 172.201 82.2 172.201 82.1H170.801V81.9C170.801 81.8 170.801 81.8 170.801 81.7H168.801V81.6C168.701 81.4 168.701 81.4 168.601 81.4C168.501 81.4 168.401 81.5 168.401 81.6V81.7H167.601V81.5C167.601 81.4 167.601 81.4 167.601 81.3H164.401V81.1C164.401 81 164.401 81 164.401 80.9H163.001V80.8V80.9H162.801C162.101 80.8 161.801 80.7 161.601 80.7C161.301 80.7 161.001 80.8 160.901 80.8V80.9H159.501C159.501 80.9 159.501 81 159.501 81.1V81.3H159.301C158.601 81.3 158.101 81.3 158.001 81.8V81.9H154.601V81.8C154.501 81.6 154.401 81.6 154.101 81.5C153.901 81.5 153.701 81.4 153.501 81.2C153.401 81.1 153.301 81 153.201 80.9C152.901 80.6 152.601 80.3 152.201 80.3H152.001V80.1C152.001 79.8 151.901 79.7 151.701 79.5C151.601 79.4 151.601 79.4 151.501 79.3C151.401 79.2 151.401 79.1 151.301 79C151.201 78.8 151.101 78.7 151.001 78.7H150.901V79C150.901 78.9 150.801 78.8 150.801 78.7C150.801 78.6 150.701 78.6 150.701 78.5C150.601 78.3 150.601 78.1 150.601 78C150.601 77.7 150.601 77.7 150.501 77.7H150.401V76.2C150.301 76.2 150.301 76.2 150.301 76.2H150.201V72.3H150.401H150.501L150.001 70.5C150.001 70.4 149.901 70.3 150.701 69.2H150.601V68.4H150.701C150.801 68.4 150.901 68.2 151.101 68H150.901L151.001 67.8C151.001 67.7 151.401 66.8 151.901 66.5V65.3H152.001C152.201 65.2 152.201 65 152.201 64.7V64.5C152.201 64.5 152.701 63.9 153.001 63.5C153.001 63.5 153.001 63.5 152.901 63.5H152.701V63.3C152.701 63.2 152.801 62.6 153.001 62.4C153.201 62.2 153.301 61.6 153.301 61.4H153.201V60H153.301C153.401 59.8 153.501 59 153.501 58.3V58.2C153.501 58 153.501 57.6 153.401 57.1V56.9H153.601H153.701L153.401 55.3H153.501C153.601 55.2 153.701 55 153.701 54.9C153.801 54.7 153.901 54.6 153.901 54.5V52.7H154.001C154.201 52.6 154.201 52.4 154.201 52.4C154.201 52.3 154.201 52.1 154.001 52.1H153.901V51.3H154.001C154.001 51.3 154.001 51 154.001 50.9H153.901V50.8C153.901 50 153.801 49 153.801 48.5H153.701C153.301 48.4 152.501 48.2 152.401 48.2H152.201V47.6C151.601 47.5 151.301 47.1 151.001 46.7C150.701 46.3 150.501 45.9 150.001 45.8H149.901V45.7C149.901 45.4 149.801 45 149.501 44.9H149.401V44.8C149.401 44.6 149.301 44.5 149.201 44.3C149.201 44.2 149.101 44.1 149.101 44.1H148.801C148.801 44.3 148.601 44.5 148.501 44.7C148.401 44.8 148.301 44.9 148.201 45C148.201 45 148.201 45.1 148.201 45.2C148.201 45.3 148.301 45.5 148.201 45.6C148.101 45.7 148.001 45.8 147.801 45.8C147.701 45.8 147.601 45.9 147.601 45.9C147.501 46.1 147.501 46.2 147.501 46.4C147.401 46.7 147.401 46.9 147.201 47.1C146.801 47.5 146.701 47.9 146.501 48.3C146.401 48.7 146.201 49.1 146.001 49.5C146.001 49.6 145.901 49.7 145.901 49.8C145.901 49.9 145.801 50.1 145.701 50.2L146.001 50.7V50.8C145.801 51.3 145.601 51.9 145.601 52.1V55H145.401C145.101 55 144.501 54 144.401 53.6C144.401 53.4 144.401 53.3 144.401 53.2L144.001 52.4C143.901 52.3 143.901 52.1 143.901 51.9C143.901 51.8 143.901 51.8 143.901 51.7H143.601L144.501 51L144.601 50.9C144.401 50.7 144.201 50.2 144.201 50.1C144.201 50 144.201 50 144.301 50L144.701 49.3H144.801C144.901 49.3 144.901 49.2 144.901 49C144.901 48.8 144.901 48.6 145.001 48.4C145.301 48.1 145.401 47.7 145.501 47.3C145.601 46.9 145.801 46.5 146.101 46.1C146.301 45.9 146.301 45.7 146.401 45.5C146.501 45.3 146.501 45 146.701 44.8C146.901 44.6 147.001 44.4 147.201 44.3C147.501 44 147.801 43.8 147.801 43.3V43.2H148.401V42H149.101L149.801 41.6L149.901 41.8C149.901 41.9 150.001 42 150.101 42H150.201V42.1C150.201 42.8 150.201 43.4 150.701 43.5H150.801V43.6C150.801 44 151.001 44.1 151.301 44.4C151.401 44.5 151.501 44.6 151.601 44.7C151.701 44.9 151.801 45 151.901 45.2C152.001 45.4 152.101 45.5 152.201 45.6H152.301C152.401 45.6 152.601 45.5 152.701 45.6C152.801 45.7 153.001 45.9 153.101 46C153.301 46.3 153.501 46.5 153.801 46.5C153.901 46.5 154.101 46.4 154.201 46.2L154.401 46L154.501 46.2C154.701 46.8 154.801 47.2 155.201 47.3H155.301V48.3C155.101 48.7 155.001 49.1 155.001 49.2H155.101L155.501 51.9H155.401C155.301 52.1 154.901 53.4 155.001 55.3C155.101 55.4 155.101 55.5 155.201 55.5H155.401V55.7L155.101 57.9H155.001C154.901 57.9 154.801 58.1 154.701 58.2C154.601 58.3 154.501 58.4 154.501 58.5V59.6C154.501 59.7 154.601 59.8 154.701 59.8L154.801 59.9L154.201 62.1H154.101C154.001 62.2 153.901 62.7 153.801 63C153.701 63.5 153.601 63.7 153.501 63.8C153.201 64.2 153.101 64.5 153.001 64.9C152.901 65.1 152.801 65.4 152.701 65.7C152.701 65.8 152.701 65.8 152.601 65.9C152.601 66 152.501 66.2 152.401 66.3V67.5H152.301C152.001 67.6 152.001 67.9 152.001 68.3C152.001 68.7 151.901 69.1 151.601 69.3C151.501 71.9 151.401 74.7 151.601 75.1H151.701V75.2C151.701 76.2 151.901 77.1 152.301 77.1C152.401 77.1 152.401 77.1 152.501 77L152.701 76.9L152.801 77.1C152.801 77.1 153.201 78.3 154.301 78.9L155.301 79.3V79.4C155.401 79.7 155.601 79.7 156.101 79.8C156.501 79.8 156.901 79.9 157.101 80.2H160.001C160.101 80.1 160.201 80 160.401 79.9C160.501 79.8 160.701 79.6 160.801 79.5V79.4H162.401V79.5C162.601 79.6 163.101 79.7 163.401 79.8C164.101 79.9 164.301 80 164.501 80.1L167.101 79.9C167.301 79.9 167.901 80 169.201 80.3H172.301V80.4C172.401 80.6 173.201 80.9 174.101 81.2V81.1V80.9H177.301C177.401 80.8 177.501 80.5 177.701 80.4C177.801 80.3 177.901 80.3 178.101 80.3C178.401 80.3 178.701 80.4 178.901 80.5C179.001 80.3 179.201 80.2 179.301 80.1C179.501 80 179.601 79.9 179.701 79.7C179.801 79.5 179.901 79.3 179.901 79.1C180.001 78.8 180.101 78.5 180.401 78.2C180.901 77.7 181.101 77.3 181.501 76.6C181.501 76.5 181.601 76.4 181.601 76.2C181.601 76 181.601 75.8 181.801 75.6V73.8H182.001C182.101 73.8 182.101 73.8 182.101 73.8C182.001 73.8 182.001 73.8 182.001 73.8H181.901V73.3H182.001H182.101L181.801 71.3C181.701 71.2 181.801 70.9 181.801 70.3C181.801 70.1 181.901 69.7 181.901 69.6V69.1H182.001C182.201 69 182.201 68.8 182.201 68.8C182.201 68.7 182.001 68.3 181.901 68.2L181.801 68H182.001C182.001 68 182.001 68 182.001 67.9H181.901V67.7C182.001 67.4 182.001 67.2 182.001 67H181.901V66.8V66.4H182.001C182.101 66.4 182.201 66.3 182.201 66.2V66.1H182.701V66.3C182.701 66.6 182.801 66.7 182.901 66.8H183.001V67.9C183.001 68.1 183.201 68.4 183.301 68.6L183.401 68.8H183.201C183.101 68.8 183.101 68.8 183.101 68.8C183.201 68.9 183.301 69 183.401 69.1L183.501 69.3L183.301 69.4C183.101 69.5 183.101 69.6 183.101 69.6C183.101 69.7 183.201 69.9 183.401 70.1L183.601 70.3H183.301C183.201 70.3 183.201 70.3 183.201 70.3V73.3H183.301H183.401V73.8H183.301C183.201 73.8 183.201 73.8 183.201 73.8V75.6H183.101C183.001 75.6 183.001 75.6 183.001 75.6V76.7H182.901C182.701 76.8 182.701 76.9 182.601 77.2C182.601 77.4 182.501 77.7 182.401 77.9C182.001 78.4 181.901 78.8 181.901 79.6V79.8H181.401V79.6C181.401 79.5 181.401 79.5 181.401 79.5L181.501 80.4C181.401 80.6 181.101 80.7 180.501 81C180.301 81.1 180.001 81.2 179.901 81.3C179.801 81.4 179.701 81.4 179.401 81.5C179.201 81.6 178.501 81.7 178.501 81.8L177.601 82.5ZM129.801 82C129.401 81.8 127.001 81.3 126.801 81.3C126.701 81.3 126.601 81.4 126.601 81.5V81.6H126.001V81.4C126.001 81.3 126.001 81.3 126.001 81.2H123.801L123.701 81C123.601 80.8 123.601 80.6 123.401 80.6C123.301 80.6 123.201 80.6 123.101 80.6C122.901 80.7 122.701 80.7 122.501 80.6C122.501 80.6 122.401 80.5 122.001 80.5C121.401 80.5 120.501 80.6 120.201 80.7H120.101C119.901 80.7 118.601 80 117.501 79.4H117.401V79.3C117.401 79.3 117.301 79.2 116.701 79.2C116.001 79.2 115.101 79.4 115.101 79.4H115.001V79.3C114.901 79.1 114.101 78.6 113.701 78.3C113.401 78.1 113.201 78 113.101 77.9C113.001 77.8 112.901 77.8 112.801 77.8C112.601 77.8 112.401 77.8 112.301 77.6C112.201 77.5 112.101 77.4 112.101 77.4C111.901 77.2 111.801 77.1 111.601 77.1H111.401V76.9C111.401 76.6 110.401 76.1 110.001 76H109.901V75.9C109.901 75.6 109.501 74.4 109.301 74.3H109.101L109.201 74.1C109.501 73.5 109.701 72.7 109.701 72.6C109.701 72.5 109.501 71.8 109.401 71.4C109.301 71 109.301 70.9 109.301 70.9C109.301 70.8 109.301 70.6 109.201 70.4C109.001 69.1 109.001 68.3 109.201 68.1L109.901 66.7C109.901 66.6 110.001 66.4 110.301 66C110.401 65.8 110.601 65.5 110.701 65.4L110.301 63.4L111.101 63.2C111.001 63 111.001 62.7 111.001 62.6L111.701 59.5H111.801C111.901 59.4 112.101 59.1 112.201 58.9C112.301 58.5 113.401 57.4 113.901 57.1V55.7C113.901 55.6 113.801 55.5 113.701 55.5H113.601V54.7H114.201V53.5H114.301C114.501 53.4 114.501 52.8 114.501 52.4C114.501 51.9 114.601 51.4 114.701 51.2C114.801 51.1 114.901 51 114.901 50.9C115.201 50.5 115.501 50.1 115.801 49.8V48.6H116.401V47.4H116.501C116.801 47.3 117.501 45.8 117.701 45.3C117.801 45.2 117.801 45 117.801 45C117.801 44.9 117.801 44.8 117.801 44.7C117.801 44.5 117.701 44.3 117.801 44.1V44C118.101 43.6 118.301 43.4 118.301 42.9V42.8C118.301 42.8 119.101 41.2 119.501 40.3C119.601 40.1 119.601 40 119.601 39.8C119.601 39.6 119.601 39.3 119.801 39.1V39C120.101 38.6 120.301 38.4 120.301 37.9V37.8H120.401C120.501 37.8 120.501 37.7 120.601 37.7L120.701 37.5C120.701 37.5 121.501 36.4 121.801 35.7C121.901 35.6 122.001 35.2 122.201 34.8L122.401 34.4C122.401 34.4 122.401 34.3 122.401 34.2C122.401 34.1 122.301 33.9 122.401 33.8C122.501 33.6 122.701 33.5 122.801 33.4C123.101 33.2 123.301 33 123.301 32.7V32.5H123.901C124.101 31.9 125.001 30.5 125.401 30.1C125.501 30 125.701 29.9 125.801 29.8C126.001 29.6 126.201 29.5 126.201 29.3V29.2H126.301C126.501 29.2 126.701 29 126.901 28.8C127.001 28.6 127.201 28.4 127.401 28.3C127.601 28.2 128.101 27.9 128.401 27.7C128.601 27.6 128.701 27.5 128.801 27.4C128.901 27.4 129.001 27.3 129.201 27.1C129.401 27 129.601 26.8 129.701 26.7C129.801 26.6 130.001 26.7 130.101 26.7H130.201C130.301 26.6 130.301 26.6 130.401 26.5C130.501 26.3 130.601 26.2 130.801 26.1C131.401 25.9 133.101 25.1 133.101 24.7V24.6H133.201C134.001 24.6 134.501 24.3 135.001 23.9C135.201 23.8 135.401 23.6 135.701 23.5C135.901 23.4 136.201 23.3 136.501 23.3C136.901 23.3 137.101 23.2 137.101 23V22.9H139.601V23.1C139.601 23.2 139.601 23.2 139.601 23.3H140.701V23.4C140.801 23.7 141.101 23.9 141.701 23.9H141.901V24.1C141.901 24.6 142.201 25.1 142.701 25.2H142.901V25.4C142.901 25.8 143.401 26.2 143.701 26.4C143.901 26.5 144.001 26.6 144.001 26.7C144.101 26.8 144.101 27 144.101 27.3C144.101 27.5 144.101 27.7 144.201 27.8C144.301 27.9 144.301 28.1 144.401 28.3C144.401 28.5 144.501 28.8 144.601 28.8H144.701V28.9V30.2H144.801H145.001V33.5H144.901C144.801 33.8 144.701 34.7 144.701 35.5V35.6H144.601C144.501 35.6 144.501 35.6 144.501 35.6V38C144.601 38 144.601 38 144.601 38H144.701V38.1C144.701 38.3 144.901 38.6 145.101 38.8C145.201 38.7 145.301 38.7 145.501 38.6C145.501 38.5 145.401 38.3 145.301 38.1C145.201 37.9 145.101 37.8 145.201 37.7V36.5H145.301C145.401 36.5 145.401 36.4 145.501 36.2C145.601 36.1 145.601 35.9 145.801 35.8V34.6H145.901C146.001 34.6 146.001 34.5 146.101 34.2C146.101 34 146.201 33.8 146.401 33.7C146.301 33.3 146.401 33.2 146.401 33.1C146.601 30.5 146.701 29.7 146.801 29.4L146.401 27.3H146.601C146.701 27.3 146.701 27.3 146.701 27.3V22.8H146.801C146.901 22.8 146.901 22.8 147.001 22.8C147.001 22.6 147.101 22.4 147.101 22.4L146.601 21.4L146.801 21.3C147.001 21.2 147.401 20.9 147.501 20.7L147.801 20.4V20.8V20.6H147.901H148.501V20.7C148.601 21 149.301 21.3 149.801 21.5C149.901 21.5 150.001 21.4 150.101 21.4C150.101 21.4 150.201 21.4 150.301 21.4V21.3L151.701 21.1V23.2H151.501C151.401 23.2 151.401 23.2 151.401 23.2V25H151.301C151.201 25 151.201 25 151.201 25V27.4H151.001C150.901 27.4 150.901 27.4 150.901 27.4V30.1H150.801C150.701 30.1 150.701 30.1 150.701 30.1V31.9H150.601C150.601 32 150.701 32.1 150.701 32.2C150.801 32.4 150.801 32.5 150.801 32.6C150.801 32.8 150.401 35.4 150.301 36.1H150.401H150.501V39C150.601 39 150.601 39 150.601 39H150.801V40.2H150.901H151.001V41.4C151.101 41.4 151.101 41.5 151.201 41.5C151.401 41.6 151.501 41.7 151.701 41.7H151.901V42.3C152.101 42.3 152.301 42.4 152.501 42.6H153.401C153.501 42.5 153.601 42.3 153.701 42.3C153.801 41.2 153.901 40.7 154.001 40.6L153.701 39.9C153.601 39.8 153.501 39.4 153.301 38.2V38H153.501C153.501 38 153.701 37.8 153.801 37.7C153.901 37.6 154.001 37.5 154.001 37.4V37.3C153.701 37.1 153.701 36.7 153.701 36.6V35.8C153.601 35.7 153.501 35.4 153.301 34.8C153.201 34.4 153.001 33.9 152.901 33.8H152.801V33.7C152.801 33.5 152.801 31.2 152.901 30.7C152.801 30.6 152.701 30.5 152.601 30.4L152.401 30.2H152.701C152.801 30.2 152.801 30.2 152.801 30.2V29H152.901C153.101 28.9 153.101 28.7 153.201 28.4C153.201 28.1 153.201 27.8 153.401 27.6C153.501 27.5 153.501 27.4 153.501 27.2C153.501 27 153.501 26.8 153.701 26.7C154.001 26.4 154.601 25.7 154.701 25.5C154.701 25.4 154.601 25.3 154.601 25.3L154.301 25.2L154.601 25C155.001 24.7 155.401 24.4 155.401 24.3V24.2H155.501C155.901 24.2 156.501 24.4 156.601 24.5C157.001 24.4 157.501 24.3 157.601 24.3V24.2L161.001 23.7V23.9C161.001 24 161.201 24.2 161.201 24.3C161.301 24.4 161.301 24.5 161.301 24.5H162.701V24.6C162.701 24.7 162.801 24.7 163.001 24.7C163.201 24.7 163.401 24.7 163.501 24.8C164.101 25.3 164.701 25.5 165.301 25.7C165.601 25.8 165.901 25.9 166.301 26C166.501 26.1 166.601 26.2 166.601 26.4C166.701 26.5 166.701 26.6 166.801 26.6C166.901 26.7 167.001 26.7 167.101 26.8C167.501 27 167.801 27.2 168.201 27.6C168.301 27.7 168.401 27.8 168.401 27.9C168.601 28.2 168.801 28.5 169.201 28.5H169.401V28.7C169.401 29 169.501 29.1 169.601 29.2H169.701V29.3C169.701 29.6 169.901 29.7 170.101 29.9C170.301 30 170.401 30.2 170.601 30.4C170.701 30.5 170.701 30.7 170.801 30.8C170.901 31.1 170.901 31.2 171.101 31.2H171.201V31.3C171.201 31.6 171.301 31.7 171.401 31.8H171.501V31.9C171.501 32.2 171.701 32.3 171.901 32.5C172.101 32.6 172.201 32.8 172.401 33C172.501 33.2 172.601 33.3 172.601 33.5C172.801 34 173.001 34.3 173.401 34.4H173.501V34.5C173.501 34.9 173.601 35.7 174.201 35.9H174.301V36C174.301 36.5 174.601 37 175.001 37.1H175.101V37.2C175.101 37.3 175.101 37.4 175.101 37.6C175.101 37.8 175.001 37.9 175.101 38C175.101 38.1 175.201 38.1 175.301 38.1C175.401 38.1 175.601 38.2 175.701 38.4C175.801 38.5 175.701 38.7 175.701 38.8C175.701 38.9 175.701 38.9 175.701 38.9C175.701 39 175.801 39 175.901 39C176.001 39 176.201 39.1 176.301 39.3C176.601 39.8 176.901 40.7 176.901 40.8L178.001 41H177.801L177.701 41.1C177.801 41.2 177.901 41.4 178.101 41.8C178.201 42.1 178.401 42.5 178.501 42.6H178.601V42.8C178.601 43.3 179.001 43.6 179.001 43.6L179.401 43.9H179.101C179.201 44.1 179.301 44.7 179.501 45.1C179.901 46.4 180.001 46.6 179.901 46.7C179.701 47 179.601 47.2 179.601 47.4L180.301 47.7V47.8C180.301 48.8 180.401 49.9 180.501 50H180.601V50.1V51.1H180.701H180.901V51.3C180.901 51.6 181.001 51.7 181.101 51.8H181.201V52.3H181.001H181.201V53.5C181.301 53.6 181.401 53.7 181.501 53.8L181.701 54H181.401C181.301 54 181.301 54 181.301 54V55.2C181.401 55.2 181.401 55.3 181.501 55.3C181.601 55.4 181.701 55.4 181.801 55.5H181.901V56.3H181.701C181.601 56.3 181.601 56.3 181.601 56.3C181.801 56.6 181.901 57.4 181.901 57.6V57.7V57.8H182.001H182.201V58.9H182.101C182.001 58.9 181.901 59.1 181.901 59.4V59.6H181.301V60.1C181.501 60.3 182.101 61 182.101 61.5C182.101 61.6 182.001 61.7 182.001 61.7C182.001 61.8 182.101 61.8 182.101 61.8H182.301L182.201 62L182.101 62.6L182.301 64.3L182.001 65.6L180.501 63H180.801H180.901L180.601 62C180.501 61.9 180.601 61.7 180.601 61.4C180.601 61.3 180.601 61.2 180.601 61.1H180.401L180.601 60.9C180.701 60.8 180.701 60.7 180.801 60.6L180.501 59.8V59.7C180.501 59.6 180.601 59.4 180.801 59.2L180.301 59L180.101 57.6C180.101 57.5 180.301 56.5 180.301 56.5V56.4H180.701L180.401 56L180.001 55.7V55L180.601 55.3V54.6C180.501 54.6 180.401 54.7 180.301 54.8L180.101 54.9V54H180.301C180.301 54 180.301 54 180.301 53.9H180.101V52.8H180.201C180.401 52.7 180.401 52.6 180.401 52.6C180.401 52.5 180.301 52.4 180.201 52.4H180.101V52.1C180.101 51.8 180.101 51.5 179.901 51.5H179.801V50.3H179.701H179.501V50C179.501 49.3 179.401 49 179.101 48.9H179.001V47.4C179.001 47.3 178.901 47.2 179.001 46.8C178.901 46.8 178.901 46.7 178.801 46.7C178.701 46.6 178.601 46.6 178.501 46.5H178.401V46.4C178.301 46 178.201 45.5 178.201 45.3H178.101V44.6C178.101 44.5 178.001 44.4 177.901 44.4H177.801V44.3C177.801 44 177.701 43.8 177.501 43.5C177.401 43.4 177.301 43.3 177.301 43.1C177.101 42.7 177.001 42.2 177.001 41.9L176.401 41.2V41.1C176.401 40.4 176.301 40.1 175.901 40H175.801V39.4H176.001C176.101 39.4 176.101 39.4 176.201 39.3C176.101 39.3 176.101 39.3 176.001 39.2C175.801 39.1 175.601 39 175.401 39H175.201V37.5H175.401C175.401 37.5 175.401 37.5 175.401 37.4H174.901V37.2C174.901 36.9 174.601 36.4 174.401 36.2L174.201 36H174.301C174.201 35.8 174.001 35.6 173.901 35.6H173.701V35.4C173.701 35.3 173.301 34.8 173.101 34.5C172.901 34.2 172.701 33.9 172.601 33.7C172.501 33.5 172.401 33.3 172.301 33.1C172.001 32.5 171.801 32 171.201 31.9H171.101V31.8C171.101 31.2 170.801 30.9 170.401 30.5C170.301 30.4 170.101 30.3 170.001 30.1C169.801 29.9 169.701 29.7 169.701 29.5C169.601 29.2 169.501 29 169.301 28.9H169.201V29C169.201 28.5 169.001 28.1 168.601 27.9C168.501 27.9 168.501 27.9 168.501 27.9C168.401 27.9 168.201 28 168.101 27.9C167.901 27.7 167.801 27.6 167.601 27.5C167.201 27.1 166.801 26.7 166.201 26.4C166.001 26.3 165.801 26.3 165.601 26.3C165.301 26.3 164.901 26.2 164.701 25.9H163.601V25.8C163.501 25.6 163.301 25.5 163.001 25.4C162.701 25.3 162.301 25.3 162.201 25C162.101 25.1 162.001 25.2 161.901 25.3L161.701 25.5V25.2C161.701 25.1 161.701 25.1 161.701 25H159.701C159.701 25 159.701 25.1 159.701 25.2V25.4H159.601C159.201 25.4 158.901 25.5 158.601 25.7L158.401 25.9V25.8L158.301 26H158.201C157.901 26 157.001 26.8 156.901 27.1V27.2H156.301C156.301 27.8 156.301 28.4 155.701 28.7L155.401 30.9C155.501 31 155.701 31.4 156.001 31.7C156.101 31.8 156.101 32 156.101 32.5C156.101 32.7 156.101 32.9 156.101 33V33.5H156.001C155.801 33.6 155.801 33.7 155.801 33.7C155.801 33.8 155.901 33.9 156.001 33.9H156.101V35H156.201H156.301V35.1C156.301 35.7 156.701 37.9 156.701 37.9V38H156.601C156.601 38.2 156.701 38.6 156.801 39C157.001 39.8 157.001 40.1 156.901 40.2C156.801 40.3 156.701 41.3 156.601 41.7C156.601 41.9 156.601 42.1 156.501 42.2V42.3H156.401C156.201 42.4 155.501 43.3 155.501 43.5V43.6H155.001V43.5C154.901 43.3 154.901 43.3 154.801 43.3C154.701 43.3 154.601 43.4 154.601 43.5V43.6H154.101V43.5C154.101 43.4 154.001 43.4 153.801 43.4C153.601 43.4 153.401 43.4 153.301 43.3C153.201 43.2 153.101 43.2 153.001 43.2C152.801 43.2 152.601 43.2 152.501 43C152.401 42.9 152.301 42.8 152.301 42.7C152.201 42.6 152.201 42.5 152.001 42.4H151.901V42.1C151.901 41.8 151.901 41.5 151.701 41.5H151.601V40.3H151.501H151.301V38.5C151.201 38.5 151.001 38.4 150.901 38.4H150.701L151.201 31.5L150.601 32.2V33.5H150.501C150.401 33.5 150.201 33.8 150.101 34L149.801 34.5V33.9C149.801 33.8 149.601 33.4 149.501 33.2C149.501 33.1 149.401 33 149.401 32.9L149.101 32.5C149.101 33.1 149.001 34 148.901 34.8V34.9C148.801 35.1 148.801 35.2 148.701 35.4C148.601 35.7 148.501 36 148.201 36.2V37.4H148.101C148.001 37.4 148.001 37.5 148.001 37.7C148.001 37.9 148.001 38.1 147.901 38.3C147.801 38.4 147.701 38.6 147.601 38.7C147.401 38.9 147.201 39.1 147.101 39.5V39.6L145.501 40V39.8C145.501 39.7 145.401 39.5 145.401 39.4C145.301 39 145.301 38.7 145.001 38.7H144.901V38.6C144.901 37.9 144.901 37.3 144.401 37.2H144.301V34.3H144.401C144.401 34.2 144.401 34 144.401 33.9V33.7H144.601C144.701 33.7 144.701 33.7 144.701 33.7V30.1H144.901H145.001C144.901 29.4 144.801 28.8 144.801 28.5H144.701V28.3C144.701 27.9 144.201 26.7 143.901 26.6H143.701V26.4C143.701 26.3 143.401 26.1 143.201 26C143.001 25.9 142.801 25.7 142.701 25.6C142.601 25.5 142.501 25.3 142.501 25.2C142.401 25 142.301 24.8 142.301 24.8C142.301 24.8 142.301 24.8 142.101 24.8C142.001 24.8 141.801 24.8 141.701 24.8C141.601 24.8 141.401 24.8 141.401 24.8C141.401 24.8 141.301 24.8 141.201 24.8C141.101 24.8 140.801 24.9 140.801 25.1V25.2H140.701C140.601 25.2 140.601 25.5 140.601 25.6C140.601 25.9 140.601 26.2 140.301 26.4C140.201 26.5 140.001 26.5 139.701 26.6C139.401 26.7 139.101 26.7 139.101 26.9V27L137.801 27.1L138.501 25.8C138.801 25.1 139.001 24.9 139.101 24.9C139.201 24.7 139.401 24.4 139.601 24.3H138.701C138.701 24.3 138.701 24.4 138.701 24.5V24.7H138.501C137.801 24.7 137.401 24.9 136.801 25.3C136.601 25.4 136.301 25.5 136.001 25.5C135.601 25.5 135.401 25.6 135.401 25.8V25.9H135.301C135.201 25.9 134.701 25.9 134.601 26.4V26.5H134.101V27H133.201L132.701 27.7C132.601 28.6 131.701 29 131.201 29.2C131.101 29.3 131.001 29.3 130.901 29.3C130.501 29.5 129.201 30.6 128.901 30.8C128.801 31.1 128.501 31.4 128.001 31.7C127.801 31.9 127.501 32.1 127.401 32.2C127.301 32.3 127.201 32.5 126.901 32.8C126.801 32.9 126.701 33 126.701 33C126.601 33.1 126.501 33.7 126.501 34.3V34.4C126.501 34.5 126.401 34.6 126.301 34.6C125.201 34.9 124.401 35.9 124.001 36.8H124.101L124.401 36.9L124.201 37.1C124.001 37.2 123.701 37.5 123.701 37.7C123.701 37.8 123.701 38.1 123.701 38.3C123.801 38.6 123.801 39 123.701 39.2C123.501 39.5 123.201 39.5 123.101 39.6C122.901 39.6 122.801 39.7 122.601 39.9C122.601 40 122.501 40.1 122.501 40.2C122.501 40.3 122.401 40.5 122.301 40.6V41.8H122.201C122.001 41.9 122.001 42.1 121.901 42.4C121.901 42.7 121.901 43 121.701 43.2C121.601 43.3 121.501 43.4 121.401 43.5C121.301 43.6 121.201 43.7 121.101 43.9C121.101 43.9 121.001 44 121.001 44.1C120.801 44.4 120.501 45 120.501 45.3C120.501 45.3 120.201 46.3 120.001 46.8C120.001 46.8 120.001 47.1 119.901 47.3C119.701 48.6 119.501 49.4 119.201 49.6L118.901 50.7H118.801C118.601 50.7 118.201 51.2 117.801 51.8L117.701 51.9H117.601C117.501 52.1 117.301 53 117.201 53.8V53.9H117.101C117.001 53.9 117.001 54 117.001 54.2C117.001 54.4 117.001 54.6 116.901 54.8C116.701 55 116.501 55.6 116.301 56C116.201 56.4 116.101 56.6 116.001 56.7V58.2H115.901C115.701 58.2 115.301 58.7 115.201 58.8H115.301H115.501V59.9H114.901C114.901 60 114.901 60 114.901 60.1C115.001 60.3 115.001 60.6 114.801 60.8C114.701 60.9 114.601 61 114.401 61C114.301 61 114.201 61.1 114.201 61.1C114.201 61.2 114.201 61.3 114.201 61.4C114.201 61.6 114.301 61.8 114.201 62C114.101 62.1 114.001 62.2 113.901 62.3C113.801 62.4 113.701 62.5 113.601 62.7C113.501 62.9 113.501 63.2 113.501 63.5C113.501 63.9 113.501 64.3 113.101 64.6C113.001 65.4 112.901 65.6 112.801 65.8V67H112.701C112.701 67 112.701 67.1 112.601 67.1C112.701 67.2 112.801 67.3 112.801 67.4L112.901 67.6L112.701 67.7C112.501 67.8 112.201 68.6 112.201 68.8C112.201 68.9 112.301 69 112.401 69H112.601L112.301 70.2C112.401 70.3 112.501 70.4 112.501 70.5L112.701 70.7H112.401C112.401 70.7 112.301 70.8 112.301 70.9C112.401 71.1 112.401 71.6 112.401 72.6C112.401 72.6 112.401 72.7 112.401 72.8C112.301 73.5 112.401 73.5 112.501 73.6H112.601V74.7H112.501C112.301 74.8 112.301 74.8 112.301 74.9C112.301 75 112.401 75.1 112.401 75.2C112.501 75.3 112.501 75.3 112.601 75.4H112.901C112.901 75.4 112.801 75.4 112.801 75.3L112.601 75.2L112.701 75C112.901 74.7 113.201 74.4 113.401 74.4C113.501 74.4 113.601 74.3 113.601 74.2V74.1H114.101V74.2C114.201 74.5 114.301 74.7 114.601 74.7H114.701V74.8C114.701 75.1 114.801 75.2 114.901 75.2H115.001V75.3C115.001 75.6 115.101 75.7 115.401 75.9C115.501 76 115.501 76 115.601 76.1C115.701 76.2 115.701 76.3 115.801 76.5C115.801 76.6 115.901 76.7 115.901 76.7H116.001C116.101 76.7 116.301 76.6 116.401 76.7C116.601 76.9 117.001 77.1 117.401 77.2C118.001 77.5 118.301 77.6 118.501 77.8H119.601V77.9C119.701 78.3 120.001 78.4 120.401 78.5C120.601 78.6 120.701 78.6 120.901 78.7C121.001 78.7 121.101 78.8 121.201 78.8C121.401 78.8 121.601 78.8 121.701 79L123.101 78.4V78.6C123.101 78.7 123.401 78.9 123.601 79H126.001V79.2C126.001 79.3 126.001 79.3 126.001 79.4H127.401V79.5C127.401 79.6 127.501 79.7 127.701 79.7C127.901 79.7 128.001 79.8 128.201 79.9L128.301 79.8V79.6H128.401H129.301V79.8C129.301 79.9 129.301 79.9 129.301 80C130.701 79.9 132.901 79.8 133.401 79.7H133.901V79.9C133.901 80 133.901 80 133.901 80L134.601 79.9C134.801 79.7 135.601 79.1 136.001 78.8C136.201 78.7 136.501 78.6 136.701 78.6H136.901C137.101 78.6 137.301 78.6 137.401 78.5C137.501 78.4 137.601 78.3 137.701 78.3C137.901 78.1 138.101 78 138.301 77.9V77.8C138.301 77.7 138.301 77.6 138.901 77.4H139.001H139.501C139.601 77.4 139.601 77.3 139.701 77.2C139.801 77.1 140.001 77 140.101 76.9V76.8H140.201C140.601 76.8 140.801 76.8 140.901 76.5C140.901 76.5 140.901 76.4 140.901 76.3C140.901 76.2 140.801 76 141.001 75.9C141.101 75.8 141.401 75.8 141.501 75.9C141.601 75.9 141.701 76 141.701 75.9C141.901 75.7 142.001 75.5 142.001 75.2C142.001 74.9 142.101 74.7 142.301 74.4C142.701 73.9 143.201 74 143.201 74H144.001V73.4H144.201C144.401 73.4 144.501 73.3 144.701 73.2C144.801 73.2 144.801 73.1 144.901 73.1V72.5H144.001L143.901 72.4C143.801 72.3 143.901 72.2 144.001 72.1C144.001 72 144.101 71.9 144.101 71.8V71.7H144.601V70.5H144.701C144.901 70.4 144.901 70.3 144.901 70.3C144.901 70.2 144.801 70.1 144.701 70.1H144.601V69.6H144.701C144.801 69.6 144.801 69.6 144.801 69.6L144.501 66.8C144.401 66.7 144.401 66.6 144.301 66.4C144.201 66.2 144.101 65.8 144.001 65.8H143.801L143.901 65.6L144.101 65.2C144.101 65.1 143.901 64.7 143.801 64.4C143.701 64.3 143.701 64.1 143.601 63.7C143.601 63.5 143.501 63.3 143.501 63.2H143.401L143.501 63C143.901 61.9 144.601 60.1 144.601 59.9H144.901C144.801 60.8 144.701 61.1 144.701 61.3C144.801 61.6 144.801 61.9 144.901 62H145.001V62.2C144.901 62.5 144.901 62.8 144.901 62.9H145.001V64.7H145.101H145.201V64.9C145.201 65.2 145.301 65.3 145.401 65.3H145.501V71.6H145.401C145.301 71.6 145.301 71.7 145.201 72C145.201 72.2 145.101 72.4 144.901 72.6V73.8H144.801C144.701 73.9 144.601 74 144.501 74.2C144.401 74.3 144.401 74.5 144.301 74.7L144.201 74.9C143.901 75.3 143.701 75.6 143.501 76C143.301 76.5 142.901 76.8 142.501 77C142.101 77.2 141.801 77.5 141.701 77.9V78H141.601C141.401 78 141.301 78.1 141.201 78.3C141.101 78.4 141.001 78.5 140.801 78.6C140.601 78.7 140.401 78.8 140.201 78.8C139.901 78.9 139.701 78.9 139.701 79.1V79.2H139.601C139.201 79.3 138.701 79.4 138.601 79.4V79.5H138.401C138.101 79.5 137.901 79.6 137.701 79.8C137.601 79.9 137.501 80 137.301 80.1C137.101 80.2 136.801 80.3 136.501 80.3C136.101 80.3 135.901 80.4 135.901 80.6V80.7H135.001C135.001 80.7 135.001 80.8 135.001 80.9V81H134.901C134.201 81.2 133.501 81.4 133.301 81.5V81.6L129.801 82Z" fill="#0080C9"/>
<path d="M151 22.6V22.8L150.4 23.7V24C150.4 24 150.8 24.5 150.6 24.7C150.5 24.9 150 24.9 150 24.9L149.9 26.5L150.5 27.3L150.1 28C150.1 28 149.9 28.7 149.8 29.2C149.7 29.8 150.2 30.4 149.7 30.5C149.2 30.6 149.2 31 148.7 31.1C149.2 30.4 149 29.3 149.1 29C149.1 28.8 148.9 28.5 148.8 28.2C148.6 27.5 148.5 27.1 148.4 26.4C149 26.4 148.9 25.8 149 25.4C149.1 24.8 147.9 24.3 148.4 24C148.6 23.8 149 24.2 149.2 23.9C149.4 23.6 148.9 23.4 148.9 23C149 22.4 151 22.6 151 22.6ZM179.2 73.7C179.5 73.5 179.4 73 179.3 72.6H179.8V72.5C179.8 72.4 179.8 72.4 180 72.3H180.1V71.9V71.8H180C179.9 71.7 179.6 71.2 179.3 70.7C179.2 70.5 179.1 70.5 179.1 70.5C178.9 70.5 178.8 70.6 178.7 70.8L178.6 70.9H178.1V71.4H178.2C178.3 71.4 178.4 71.5 178.4 71.6C178.4 71.6 178.4 71.7 178.2 71.8H178.1V73.1C178 73.1 178 73.1 177.9 73.1C177.4 73.1 176.8 73.6 176.7 73.6L176.4 73.8L176.7 73.9C176.9 73.9 177.3 74.4 177.3 74.6V74.7L178.1 75.6L179.2 73.7ZM177.3 77.7V77.6H177.2C177.1 77.6 177.1 77.4 177 77L176.9 76.8L175.1 76.5L175.6 78.1H175.7C176.1 78.1 176.1 78.2 176.1 78.3L177 79L177.3 77.7ZM121.9 76.1H122V76C122 76 122.1 75.9 122.2 75.8C122.3 75.7 122.4 75.7 122.4 75.6L123.5 75.1L123.7 73.7H123.5C123.2 73.7 123.2 73.6 123 73.1C123 73 123 73 122.9 72.9V72.8L121.6 72.7L119.6 73.6L119.7 73.9C119.7 73.9 119.9 73.9 120.2 73.9C120.6 73.9 121.4 73.9 121.6 73.9L122 74.5H121.9C121.7 74.6 121.3 74.8 121.2 74.8H121.1L120.7 76.2L121.9 76.1ZM156.7 81H155.8L155 80.7L152.9 79.6L153.7 80.8L154 81L154.9 81.6H155.2H155.4C156 81.6 156.8 81.7 156.8 81.7H157.1L156.7 81ZM157.6 30.2C157.6 30 157.8 30 158.2 29.9C158.4 29.9 158.5 29.9 158.7 29.8H158.8V29.7C158.9 29.5 159.1 28.7 158.9 28.4C158.8 28.3 158.7 28.2 158.6 28.2C158.2 28.2 157.8 28.8 157.8 28.9V29C157.8 29 157.6 29 157.5 29C157.3 29 157.1 28.9 157 29H156.9L157 31.1L157.6 30.2ZM158 35.4C158.1 35.3 158.4 35.1 158.7 35.1C159.1 35.1 159.3 35.1 159.4 34.9C159.5 34.6 159.2 34.2 159.2 34.1L158.2 33.4L157.4 34.5L157.2 34.7H157.4C157.4 34.7 157.5 34.8 157.6 35.3L157.7 35.6L158 35.4ZM162.9 31.6C162.9 31 162.9 31 163.3 31C163.5 31 163.7 30.9 163.9 30.8L164.2 30.7L164.1 30.4C164.1 30.3 163.8 29.5 163.4 29.2C163.2 29.1 163 29 162.6 29C162.1 29 161.7 29.1 161.6 29.2L161.4 29.3V29.5C161.4 30.2 161.1 30.7 160.5 30.9L160.3 31V31.9H161L161.3 31.8L161.4 31.6C161.4 31.5 161.5 31.4 161.5 31.4V33.7L162.9 31.6ZM118.7 75.3C117.8 74.2 116.3 72.3 116.3 71.9V71.7C116.3 71.6 116.4 71.3 116.5 71.1L116.6 70.9H116.5C116.5 70.6 116.7 70 116.8 69.9H117.2L116.9 69.6C116.2 69 115.9 68.7 115.7 68.5C115.9 68.3 116.1 68.1 116.2 68.1H116.3V68C116.4 67.2 116.5 66.3 116.6 66H116.7V64.8C117 64.6 117.2 64.2 117.4 63.8C117.5 63.6 117.7 63.3 117.8 63.2C118 63 118.6 62.1 118.7 61.9C119.1 61.7 119 61.2 118.9 60.9C118.8 60.7 118.8 60.4 118.9 60.3C119.1 60 119.2 59.8 119.3 59.6C119.6 59.1 119.8 58.7 120.4 58.2C120.5 58.1 120.6 57.9 120.6 57.8C120.6 57.7 120.6 57.6 120.7 57.6V57.2L119.5 56.9V57.1C119.4 57.3 119.1 57.8 118.8 58.1C118.8 58.1 118.8 58.1 118.7 58.1C118 58.2 117.3 58.3 117 58.7V58.8C116.9 60 116.7 61.4 116.5 61.5C115.7 62.2 115.3 62.5 115.2 62.5H115.1V62.6C115.1 63.8 114.9 65.5 114.3 65.6H114.2V69.6V69.8H114.4C114.5 69.9 114.6 70.7 114.5 71.5V71.7H114.7C114.8 71.7 114.9 72 114.9 73.8V74.2H115.1C115.2 74.2 115.3 74.2 115.5 74.2C115.8 74.2 116.4 74.2 116.6 74.3L118.7 75.6V75.3ZM120.6 69.1V69H120.5C120.5 69 120.4 68.8 120.3 68.4L120.2 68.2L118.4 68L118.9 69.5H119C119.4 69.5 119.4 69.6 119.4 69.7L120.3 70.4L120.6 69.1Z" fill="white"/>
<path d="M195.7 0H293.6V104.9H195.7V0Z" fill="#FFDD00"/>
<path d="M235.5 19.2L228 17.1C228.4 18.7 230 23.7 229.2 27.8C227.9 34 222 34.2 218.8 40.2C216.7 44.1 222.3 59.1 224.2 64C226 68.7 224.6 72.9 228.3 76.2C231.8 79.5 233.3 81.4 237.7 83.2C242.7 85.2 245.5 86.9 250.9 86.9C252.7 86.9 260.6 86 261.2 82L264.6 70.4C266.1 64.9 268 63.7 268 58C268 53.1 268.4 55.9 266.5 51.3C265.6 49 265.7 44.6 263.6 43.5C262.3 42.8 257.1 42 257.1 40.5C257.1 39.4 257.9 33.6 259.7 32C260.5 31.3 264.6 29.7 265.4 28.9C263.6 28.2 259.5 24.5 258.2 24.5C255.8 24.5 252.4 27.9 250.9 29.7C251.6 26.7 253.3 24 253.5 20.9C251.7 20.4 246.7 18.5 245.5 18.5C243.4 18.5 244.1 20.6 243 22.4C241.5 24.9 237.3 29.8 237.3 29.8L235.5 19.2Z" fill="#AFCA0B"/>
<path d="M253.9 85.9L249.8 84.6H247.4V84.2H245.6V84C245.6 83.9 245.6 83.9 245.6 83.8H244.2V83.4L242.1 82.8L240.6 82.2L238.8 81.7L238.7 80.9L237.5 80.3L237.4 79.4L236.3 79.1V79C236.2 79 235.9 79 235.6 79C235.4 79 235.2 79 235 79C234.9 79 234.7 79 234.6 78.9H234.1V78.5H233.7V78.1C233.5 78.1 233.4 78 233.2 77.9C233 77.8 232.9 77.8 232.7 77.8H232.6V77.7C232.6 77.6 232.5 77.5 232.5 77.4C232.4 77.3 232.4 77.2 232.3 77.1H232L230.4 74.7L229 74.1L228.6 73.3V72C228.5 72 228.5 72 228.4 72H228.2V71.3H227.8V70.1H227.5L226.3 67C226.3 66.8 226.4 66.6 226.5 66.5C226.5 66.5 226.5 66.4 226.6 66.4V66.3L226.4 63.9V63.5L226.7 63.6H226.8C227.3 63.9 228.5 64.8 229.1 65.7C229.7 66.7 229.8 68.5 229.8 68.6L229.5 70.1L229.7 70.6L230.8 70.7L231.4 72.4L232.2 74L233.4 74.7L234.6 75.8L235.3 77L237.3 76.3L237.9 77.8L239.3 78.3L240.7 80L242.1 80.8L244 81.5L246.5 81.3L246.7 82.2L248.8 82.6L254.3 83.4L256.3 83.5L258.3 82.2L258.8 82.6H259.4L260.7 82.3V82L261.6 80.7L262.3 80.1L263.3 78V76.4H263.7L264 71L264.8 68.6L264.7 66.6V64.6H265.2L265.9 63.6V63.4L266 62.4L266.7 61.8L266.2 59.7H266.6V58.9L265.9 58.1L264.7 54.5L263.5 53.7L262.6 53.6L261.8 52.6L260.3 51.1L258.8 50.6L256.6 49.8L257.8 49.2L258.7 48.8L259.6 49.5L260.9 49.4L261.7 50.5L262.9 51.7H263.4V50.9L262.8 50.2H263.8V49.3L263.4 47.9L262.7 46.7L262.3 45.8H262L261.4 44.4L259.7 43.2H258.5V42.5H257.8V42.9H257L256.5 45.2L255.6 44.2L255.8 42.7L255.7 41.6L255.8 39.2L256.2 38.5L257.2 36.7L257.3 35.9L257.7 35.2V35H258.2L259.3 34L260.3 32.6V32H260.8L261.5 31.5L261.1 31.2L260.3 30.9V30.5L257.4 29.4L257.1 29L256.8 28.5L254.7 28.8L254.3 29.1L252.5 29.8L251.8 31L251.5 32.1L250 34.7V35.4L248.5 37L247 40L246.5 40.2L245.8 43L245.2 41L245.4 38.6H245.8L246.4 37.7L247.6 36.1L247.9 35.5L248 34.3H248.8L248.7 32.7L249.9 31L250.3 29.9L251.1 27.7V25.9L251.4 24.7H250.9L249.7 24.3L247.8 24.1L247.4 22.8H246.2L245.2 23.8L244.8 24.5L244 26L243.2 26.8H242.5L241.7 28.6L240.7 29L239.9 29.8L239.5 30.4L238.3 32L238.1 30.7V29.2L237.8 28.3H237.3L237.7 26.2V24.8L237.3 23.1V20.9L236.7 20.6H232.6V21L231.5 21.1L231.7 23.5L232.2 25.8H231.8V27.9L231 29.3V31.3L230.6 32L229.9 32.8V34.3L229.5 34.7L228.4 35.5L226.8 36.7L225 37.5L224.4 39.3L223.2 40.6L222.5 41.7V42.2L222.7 42.4L224.8 39.9H226.4L224.7 42.5L224.4 42.8L224 44.6L223.5 45.5L224.4 46.9L223.5 47.6L223.9 48.9L221.9 48.2L221.8 47.2L222.2 44.7L221.7 42.9L221.1 44.4H220.8V49L222.4 51.6L223.3 54.2V55L224.8 55.7L224.5 57.1L225.3 57.9V58.6L225.7 59.7L226.1 61.5L224.8 63.7L224 62.1V62C224 62 224.2 60.9 223.9 60.3C223.7 60 223.2 59.6 223.2 59.6C222.8 58.4 222.4 57.2 222.3 57H222.2L221.8 54.7L220.9 53.7L220.7 52.5L219.9 43.1H220C220.1 42.9 220.3 42 220.4 41.4C220.7 39.9 220.8 39.7 220.9 39.6L221.9 38.6L225.3 36.1C225.9 36 226.5 35.9 226.5 35.8V35.7H226.6C226.6 35.6 226.7 35.2 226.7 35C226.8 34.5 226.8 34.1 227.1 34L229.1 32.8L229.8 31.4V29.5C230.2 28.5 230.4 28.1 230.5 28V23.1C230.4 23.1 230.4 23.1 230.3 23.1H230.1V20.5H229.7V19.5H231.2C231.3 19.4 231.5 19.3 231.6 19.2L231.8 19.1V19.3C231.9 19.4 232.1 19.5 232.2 19.5C232.4 19.6 232.6 19.7 232.6 19.7L234 19.4C234.1 19.3 234.6 19.3 236.3 19.2C237.1 19.2 238.2 19.1 238.5 19.1V18.9L238.7 19.1C238.9 19.2 239.3 19.5 239.6 19.5H239.7L240.3 20.1L239.7 20.5L239.3 21.3L238.7 21.5L239 24.5L239.1 27.4H239C239 27.5 239.1 27.9 239.1 28.1L239.4 29.3H239.5V28.5H239.9V27.7H240.1C240.3 27.7 240.4 27.6 240.6 27.6C240.7 27.5 240.9 27.5 241.1 27.4L241.6 26.9L241.8 26.3L243 24.4L243.7 24C243.8 23.8 244.1 23.4 244.4 23.3V22.9H244.8C244.9 22.5 245.3 22 245.5 21.8V21.3H245.7C245.9 21.3 246.1 21.2 246.3 21.1C246.5 21 246.7 20.9 246.9 20.9H247L247.1 21L248 22.1H248.9V22.5L250 22.9V23.3C250.2 23.3 250.3 23.4 250.4 23.6L251.6 23.2L252.6 24H253.8V24.5L254 25.1C254 25.6 253.2 26.1 253 26.2C252.9 26.4 252.7 27.7 252.5 28.9L254 28.4L255 27.6L256.2 27.5L257 27.1L257.5 27.8L259.1 28L258.9 28.7C259.2 28.8 259.9 29.2 260.1 29.4L261.8 29.5V29.9H262.5V30.3L264.4 31.2L264.1 31.3C264.1 31.4 264.2 31.7 264.2 31.8C264.2 32 264.3 32.1 264.3 32.2V32.3L263.3 33V33.4H263.2C263.1 33.4 263 33.5 263 33.6V33.7H262.3L261.5 34.9H261.2V35.3H260.8V35H260.7C260.5 35 260.1 35.7 259.8 36.4V36.5H259.5V37.2H259.1L258.3 39.8H258.2C258.1 39.8 258.1 39.8 258 39.8V41.7C258 41.6 258 41.6 258 41.5V41.2L259.7 42.1L262.2 43.5L262.7 44.2L264.2 45.5V45.6C264.2 45.7 264.3 45.8 264.4 45.8H264.5V47.2H264.9V48.4H265.3V52.3L266.5 52.9V53C266.5 53.3 266.8 53.5 267 53.5H267.2V54.4C268.6 56.3 268.6 56.5 268.6 56.6C268.6 56.7 268.7 57.1 268.8 57.5C269.2 59.3 269.2 59.6 269.1 59.6L268.5 60.6L268.6 62.3L268.1 64L266.8 65.9V67.8H266.6H266.5L266.8 68.5H266.7C266.5 68.9 266 71 265.7 72.3L266.1 74.7L265.3 75.8V77.3L264.5 79.6C264.4 79.7 264.3 80.2 264.3 80.5V80.6L262.8 81.8C262.7 82.1 262.5 83.1 262.5 83.5V83.7H262.3C262.1 83.7 261.9 83.8 261.8 83.8C261.6 83.9 261.5 83.9 261.2 84L260.8 84.4L259.1 84.5L258.3 85.6L257 85.3L253.9 85.9Z" fill="#4C3C90"/>
<path d="M236.9 36H236.6L236.4 33.9L237.4 33L237.8 31.7L239.2 32.2L239 34H238.8C238.8 34 238.7 34 238.6 34C238.5 34 238.4 34 238.2 34C237.7 34 237.4 34.1 237.3 34.3L236.9 36ZM251 41.2L249.2 40.7L248 38.9L249.3 38.5L250.1 37.5L250.4 37.6L250.1 39.1L250.6 39.5L251 41.2ZM237.1 74.8C236.7 74.8 235.8 74.7 235.8 74.7H235.7C235.7 74.7 234.7 74.2 234.3 73.7C233.9 73.1 233.8 72.1 233.8 71.8L233.2 71.1H233.5C233.5 71.1 233.7 71.1 234 71.1C234.5 71.1 235.2 71.2 235.4 71.7C235.6 72.2 235.3 72.9 235.1 73.2L236.5 73.7L237.6 74.8H237.3C237.2 74.8 237.1 74.8 237.1 74.8ZM243.9 80.1L243.6 80C243.5 80 242.4 79.7 241.8 79.2C241.4 78.8 241.1 78 241 77.8L239.8 76.5L238.9 75.2L239.1 75.1C239.1 75.1 239.8 74.8 240.4 74.8C240.7 74.8 240.9 74.9 241.1 75C241.7 75.5 241.5 76.6 241.5 77L243.2 77.8L243.9 80.1ZM251.3 38.6L251.1 38.3L252.3 36.8L252.7 36.6L252.2 35.3L254.1 36.2V37.7H253.9C253.8 37.7 253.6 37.7 253.5 37.6C253.4 37.6 253.2 37.5 253.1 37.5L251.3 38.6ZM251.2 35.6L250.9 35.4L252.1 32.4L253.2 30.1L255.5 29.4L255.7 29.7L254.1 31.1L254.4 32.5H254.2H254.1C253.8 32.5 253.3 32.5 253.1 33L251.2 35.6Z" fill="white"/>
</g>
<defs>
<clipPath id="clip0">
<rect width="566.9" height="104.9" fill="white"/>
</clipPath>
</defs>
</svg>
